<svg width="1080" height="199" viewBox="0 0 1080 199" fill="none" xmlns="http://www.w3.org/2000/svg">
<path d="M0 99.24H1080" stroke="#99CA3C" stroke-width="10" stroke-linejoin="round"/>
<path d="M845.92 5H237.43C216.51 5 196.6 14.28 183.39 30.5C166.18 51.63 145.93 70.16 123.24 85.46L102.83 99.23L129.32 115.88C146.46 126.66 167.27 149.85 182.2 168.09C195.34 184.15 215 193.46 235.75 193.46H842.58C863.5 193.46 883.41 184.18 896.62 167.96C913.83 146.83 934.08 128.3 956.77 113L977.18 99.23L956.77 85.46C938.41 73.08 914.66 47.68 898.09 28.72C884.93 13.66 865.93 5 845.93 5H845.92Z" fill="#00305C" stroke="#99CA3C" stroke-width="10" stroke-linejoin="round"/>
</svg>
