<svg width="1097" height="1099" viewBox="0 0 1097 1099" fill="none" xmlns="http://www.w3.org/2000/svg">
<path d="M624.8 1065.7C686.877 1065.7 737.2 944.1 737.2 794.1C737.2 644.099 686.877 522.5 624.8 522.5C562.723 522.5 512.4 644.099 512.4 794.1C512.4 944.1 562.723 1065.7 624.8 1065.7Z" stroke="#D6EAB1" stroke-width="3" stroke-miterlimit="10"/>
<path d="M704.212 822.797C728.194 674.726 697.96 546.645 636.681 536.72C575.403 526.795 506.286 638.785 482.304 786.856C458.321 934.927 488.556 1063.01 549.834 1072.93C611.112 1082.86 680.229 970.868 704.212 822.797Z" stroke="#D6EAB1" stroke-width="3" stroke-miterlimit="10"/>
<path d="M657.692 841.04C705.039 698.708 695.671 567.441 636.768 547.846C577.865 528.252 491.732 627.75 444.384 770.082C397.037 912.414 406.404 1043.68 465.308 1063.28C524.211 1082.87 610.344 983.372 657.692 841.04Z" stroke="#D6EAB1" stroke-width="3" stroke-miterlimit="10"/>
<path d="M609.376 851.573C678.871 718.642 690.611 587.566 635.598 558.806C580.586 530.046 479.653 614.493 410.158 747.424C340.663 880.355 328.923 1011.43 383.936 1040.19C438.949 1068.95 539.882 984.504 609.376 851.573Z" stroke="#D6EAB1" stroke-width="3" stroke-miterlimit="10"/>
<path d="M560.525 854.385C650.378 734.275 682.924 606.762 633.217 569.576C583.51 532.391 470.374 599.614 380.52 719.724C290.666 839.835 258.121 967.348 307.828 1004.53C357.534 1041.72 470.671 974.495 560.525 854.385Z" stroke="#D6EAB1" stroke-width="3" stroke-miterlimit="10"/>
<path d="M509.154 858.853C617.237 754.842 669.962 634.265 626.918 589.535C583.874 544.806 461.361 592.863 353.278 696.873C245.195 800.884 192.47 921.462 235.514 966.191C278.559 1010.92 401.071 962.864 509.154 858.853Z" stroke="#D6EAB1" stroke-width="3" stroke-miterlimit="10"/>
<path d="M461.362 845.666C584.684 760.274 656.008 649.677 620.669 598.641C585.33 547.605 456.71 575.456 333.388 660.848C210.066 746.241 138.741 856.838 174.08 907.874C209.42 958.91 338.04 931.059 461.362 845.666Z" stroke="#D6EAB1" stroke-width="3" stroke-miterlimit="10"/>
<path d="M416.748 825.402C552.136 760.825 640.226 663.054 613.501 607.025C586.776 550.995 455.358 557.924 319.969 622.501C184.581 687.078 96.4918 784.849 123.217 840.878C149.941 896.908 281.36 889.979 416.748 825.402Z" stroke="#D6EAB1" stroke-width="3" stroke-miterlimit="10"/>
<path d="M369.077 805.224C513.122 763.376 615.853 681.125 598.534 621.513C581.216 561.901 450.404 547.501 306.36 589.35C162.315 631.199 59.584 713.449 76.9029 773.061C94.2218 832.673 225.033 847.073 369.077 805.224Z" stroke="#D6EAB1" stroke-width="3" stroke-miterlimit="10"/>
<path d="M332.743 771.439C481.625 753.159 596.185 688.391 588.62 626.777C581.055 565.163 454.229 530.034 305.347 548.314C156.464 566.595 41.9038 631.362 49.4691 692.976C57.0344 754.59 183.86 789.719 332.743 771.439Z" stroke="#D6EAB1" stroke-width="3" stroke-miterlimit="10"/>
<path d="M574.445 629.315C576.828 567.284 457.25 512.33 307.36 506.572C157.47 500.814 34.0286 546.432 31.6456 608.463C29.2626 670.494 148.841 725.448 298.731 731.206C448.621 736.965 572.062 691.346 574.445 629.315Z" stroke="#D6EAB1" stroke-width="3" stroke-miterlimit="10"/>
<path d="M562.931 638.919C575.307 578.088 466.181 504.532 319.192 474.627C172.203 444.721 43.0119 469.791 30.6358 530.622C18.2597 591.453 127.385 665.009 274.374 694.914C421.363 724.819 550.554 699.749 562.931 638.919Z" stroke="#D6EAB1" stroke-width="3" stroke-miterlimit="10"/>
<path d="M548.105 636.947C570.048 578.877 474.086 488.82 333.769 435.799C193.452 382.777 61.9148 386.87 39.9722 444.939C18.0296 503.009 113.991 593.065 254.308 646.087C394.625 699.108 526.163 695.016 548.105 636.947Z" stroke="#D6EAB1" stroke-width="3" stroke-miterlimit="10"/>
<path d="M533.992 632.764C564.937 578.95 484.608 474.709 354.573 399.936C224.538 325.162 94.0385 308.172 63.0939 361.986C32.1494 415.8 112.478 520.041 242.513 594.814C372.548 669.588 503.048 686.579 533.992 632.764Z" stroke="#D6EAB1" stroke-width="3" stroke-miterlimit="10"/>
<path d="M519.405 635.802C558.639 587.696 496.212 471.843 379.97 377.039C263.728 282.234 137.689 244.377 98.4551 292.483C59.2207 340.589 121.648 456.441 237.89 551.246C354.132 646.051 480.171 683.908 519.405 635.802Z" stroke="#D6EAB1" stroke-width="3" stroke-miterlimit="10"/>
<path d="M506.914 627.212C553.335 585.998 510.234 461.655 410.645 349.485C311.056 237.315 192.691 179.794 146.27 221.009C99.849 262.223 142.951 386.566 242.54 498.736C342.129 610.906 460.494 668.427 506.914 627.212Z" stroke="#D6EAB1" stroke-width="3" stroke-miterlimit="10"/>
<path d="M496.299 616.877C548.712 583.614 526.045 453.98 445.671 327.33C365.297 200.681 257.651 124.975 205.238 158.238C152.825 191.5 175.492 321.135 255.866 447.784C336.24 574.434 443.886 650.139 496.299 616.877Z" stroke="#D6EAB1" stroke-width="3" stroke-miterlimit="10"/>
<path d="M487.948 605.221C545.004 580.766 543.355 449.175 484.264 311.305C425.172 173.434 331.015 81.4919 273.958 105.947C216.901 130.401 218.551 261.992 277.642 399.863C336.734 537.734 430.891 629.676 487.948 605.221Z" stroke="#D6EAB1" stroke-width="3" stroke-miterlimit="10"/>
<path d="M474.754 598.99C535.013 584.078 554.651 453.95 518.617 308.342C482.582 162.734 404.521 56.7845 344.262 71.6971C284.003 86.6097 264.365 216.737 300.4 362.345C336.434 507.953 414.495 613.903 474.754 598.99Z" stroke="#D6EAB1" stroke-width="3" stroke-miterlimit="10"/>
<path d="M470.055 584.875C531.923 579.788 572.114 454.474 559.823 304.978C547.532 155.482 487.414 38.4146 425.546 43.501C363.678 48.5875 323.488 173.902 335.779 323.398C348.069 472.894 408.187 589.961 470.055 584.875Z" stroke="#D6EAB1" stroke-width="3" stroke-miterlimit="10"/>
<path d="M596.671 307.041C608.44 157.503 567.812 32.3299 505.927 27.4594C444.042 22.5889 384.333 139.865 372.564 289.403C360.795 438.942 401.423 564.114 463.308 568.985C525.193 573.855 584.903 456.579 596.671 307.041Z" stroke="#D6EAB1" stroke-width="3" stroke-miterlimit="10"/>
<path d="M636.785 324.009C672.565 178.338 652.7 48.2449 592.415 33.4375C532.13 18.6301 454.254 124.716 418.474 270.387C382.694 416.057 402.559 546.15 462.844 560.958C523.129 575.765 601.005 469.679 636.785 324.009Z" stroke="#D6EAB1" stroke-width="3" stroke-miterlimit="10"/>
<path d="M671.26 338.083C729.87 200.007 731.06 68.4113 673.918 44.156C616.776 19.9007 522.94 112.17 464.33 250.247C405.72 388.323 404.53 519.919 461.672 544.174C518.814 568.43 612.65 476.159 671.26 338.083Z" stroke="#D6EAB1" stroke-width="3" stroke-miterlimit="10"/>
<path d="M703.492 357.511C783.423 230.582 805.638 100.869 753.109 67.79C700.58 34.7108 593.199 110.791 513.267 237.721C433.336 364.65 411.121 494.363 463.65 527.442C516.179 560.521 623.56 484.441 703.492 357.511Z" stroke="#D6EAB1" stroke-width="3" stroke-miterlimit="10"/>
<path d="M730.965 391.303C830.358 278.959 873.243 154.541 826.75 113.408C780.257 72.2744 661.993 130.002 562.6 242.345C463.206 354.689 420.322 479.107 466.815 520.24C513.308 561.374 631.572 503.646 730.965 391.303Z" stroke="#D6EAB1" stroke-width="3" stroke-miterlimit="10"/>
<path d="M754.883 419.861C870.96 324.853 933.185 208.892 893.866 160.855C854.548 112.817 728.576 150.894 612.499 245.902C496.423 340.909 434.198 456.87 473.516 504.907C512.835 552.945 638.807 514.868 754.883 419.861Z" stroke="#D6EAB1" stroke-width="3" stroke-miterlimit="10"/>
<path d="M774.343 451.8C904.116 376.573 984.08 272.052 952.948 218.347C921.816 164.641 791.376 182.087 661.603 257.314C531.83 332.541 451.866 437.062 482.998 490.767C514.13 544.473 644.569 527.027 774.343 451.8Z" stroke="#D6EAB1" stroke-width="3" stroke-miterlimit="10"/>
<path d="M782.837 494.496C923.061 441.23 1018.87 351.006 996.821 292.975C974.777 234.944 843.233 231.082 703.009 284.348C562.784 337.614 466.98 427.838 489.024 485.869C511.068 543.9 642.612 547.763 782.837 494.496Z" stroke="#D6EAB1" stroke-width="3" stroke-miterlimit="10"/>
<path d="M790.724 530.806C937.661 500.644 1046.66 426.898 1034.18 366.089C1021.69 305.28 892.459 280.435 745.522 310.597C598.585 340.759 489.588 414.505 502.071 475.314C514.553 536.123 643.787 560.967 790.724 530.806Z" stroke="#D6EAB1" stroke-width="3" stroke-miterlimit="10"/>
<path d="M793.006 568.119C942.875 561.837 1062.26 506.466 1059.66 444.444C1057.06 382.422 933.462 337.235 783.593 343.516C633.724 349.798 514.338 405.169 516.938 467.191C519.537 529.213 643.137 574.4 793.006 568.119Z" stroke="#D6EAB1" stroke-width="3" stroke-miterlimit="10"/>
<path d="M1066.56 524.057C1073.91 462.417 959.123 398.05 810.177 380.289C661.232 362.529 534.529 398.1 527.179 459.74C519.829 521.38 634.615 585.747 783.56 603.508C932.506 621.269 1059.21 585.697 1066.56 524.057Z" stroke="#D6EAB1" stroke-width="3" stroke-miterlimit="10"/>
<path d="M1065.58 614.26C1082.79 554.618 979.917 472.547 835.799 430.95C691.682 389.353 560.896 403.981 543.682 463.623C526.467 523.265 629.342 605.336 773.459 646.933C917.577 688.53 1048.36 673.902 1065.58 614.26Z" stroke="#D6EAB1" stroke-width="3" stroke-miterlimit="10"/>
<path d="M1048.16 693.156C1074.68 637.034 986.255 539.571 850.642 475.467C715.029 411.363 583.587 404.893 557.058 461.016C530.529 517.138 618.959 614.601 754.572 678.705C890.185 742.809 1021.63 749.279 1048.16 693.156Z" stroke="#D6EAB1" stroke-width="3" stroke-miterlimit="10"/>
<path d="M1018.74 768.214C1053.9 717.055 982.187 606.707 858.568 521.746C734.949 436.785 606.232 409.383 571.071 460.542C535.91 511.701 607.62 622.049 731.24 707.01C854.859 791.971 983.576 819.373 1018.74 768.214Z" stroke="#D6EAB1" stroke-width="3" stroke-miterlimit="10"/>
<path d="M975.76 847.62C1018.73 802.815 965.792 682.33 857.527 578.508C749.263 474.686 626.666 426.843 583.7 471.648C540.734 516.452 593.669 636.938 701.933 740.76C810.198 844.581 932.794 892.425 975.76 847.62Z" stroke="#D6EAB1" stroke-width="3" stroke-miterlimit="10"/>
<path d="M923.54 909.277C973.117 871.918 940.127 744.519 849.854 624.724C759.581 504.928 646.211 438.1 596.635 475.458C547.058 512.817 580.048 640.216 670.321 760.012C760.593 879.807 873.964 946.636 923.54 909.277Z" stroke="#D6EAB1" stroke-width="3" stroke-miterlimit="10"/>
<path d="M862.534 961.989C917.446 933.038 905.248 802.003 835.29 669.315C765.332 536.628 664.105 452.534 609.193 481.485C554.281 510.437 566.478 641.471 636.436 774.159C706.394 906.847 807.622 990.941 862.534 961.989Z" stroke="#D6EAB1" stroke-width="3" stroke-miterlimit="10"/>
<path d="M787.474 1012.26C846.343 992.567 855.482 861.283 807.886 719.034C760.29 576.785 673.983 477.437 615.114 497.135C556.246 516.832 547.107 648.115 594.703 790.364C642.298 932.613 728.605 1031.96 787.474 1012.26Z" stroke="#D6EAB1" stroke-width="3" stroke-miterlimit="10"/>
<path d="M712.451 1042.52C773.712 1032.48 803.723 904.35 779.482 756.321C755.242 608.292 685.929 496.423 624.668 506.455C563.407 516.487 533.397 644.62 557.637 792.649C581.878 940.678 651.19 1052.55 712.451 1042.52Z" stroke="#D6EAB1" stroke-width="3" stroke-miterlimit="10"/>
<path d="M549 1052.3C827.075 1052.3 1052.5 826.875 1052.5 548.8C1052.5 270.724 827.075 45.2998 549 45.2998C270.925 45.2998 45.5 270.724 45.5 548.8C45.5 826.875 270.925 1052.3 549 1052.3Z" fill="url(#paint0_radial_13_3)"/>
<path d="M264.02 534.9C264.02 566.14 246.933 581.76 212.76 581.76H183.06V641.6H151.6V488.04H211.66C227.647 488.04 240.187 491.78 249.28 499.26C259.107 507.326 264.02 519.206 264.02 534.9ZM232.56 534.9C232.56 523.606 225.227 517.96 210.56 517.96H183.06V552.06H210.56C217.6 552.06 222.807 551.033 226.18 548.98C230.433 546.34 232.56 541.646 232.56 534.9ZM389.324 641.6H283.944V488.04H389.324V519.06H315.404V547.88H379.864V577.58H315.404V610.58H389.324V641.6ZM538.183 641.6H501.663L470.863 590.12C468.37 585.866 466.17 583.08 464.263 581.76C462.356 580.44 459.203 579.78 454.803 579.78H447.103V641.6H415.643V488.04H471.963C487.803 488.04 500.416 491.78 509.803 499.26C520.07 507.473 525.203 519.28 525.203 534.68C525.203 544.213 522.636 552.72 517.503 560.2C512.37 567.533 505.33 572.886 496.383 576.26L538.183 641.6ZM493.743 534.9C493.743 523.9 486.556 518.4 472.183 518.4H446.663V552.06H472.183C486.556 552.06 493.743 546.34 493.743 534.9ZM670.602 564.82C670.602 594.446 665.836 614.466 656.302 624.88C646.182 636.026 626.529 641.6 597.342 641.6H554.002V488.04H597.342C626.529 488.04 646.182 493.54 656.302 504.54C665.836 515.1 670.602 535.193 670.602 564.82ZM639.142 575.38V554.26C639.142 539.886 636.942 530.426 632.542 525.88C628.142 521.333 618.756 519.06 604.382 519.06H585.462V610.58H604.382C618.609 610.58 627.922 608.306 632.322 603.76C636.869 599.213 639.142 589.753 639.142 575.38ZM802.468 641.6H697.088V488.04H802.468V519.06H728.548V547.88H793.008V577.58H728.548V610.58H802.468V641.6ZM944.287 578.24C944.287 621.653 924.707 643.36 885.547 643.36C846.241 643.36 826.587 621.653 826.587 578.24V488.04H858.047V576.48C858.047 588.066 859.661 596.573 862.887 602C867.141 609.186 874.621 612.78 885.327 612.78C896.474 612.78 904.101 609.26 908.207 602.22C911.287 597.086 912.827 588.506 912.827 576.48V488.04H944.287V578.24Z" fill="#FFFAFC"/>
<defs>
<radialGradient id="paint0_radial_13_3" cx="0" cy="0" r="1" gradientUnits="userSpaceOnUse" gradientTransform="translate(549 548.8) scale(503.5)">
<stop stop-color="#00305C"/>
<stop offset="0.4" stop-color="#00305C"/>
<stop offset="0.6" stop-color="#00305C" stop-opacity="0.81"/>
<stop offset="0.7" stop-color="#00305C" stop-opacity="0.64"/>
<stop offset="0.8" stop-color="#00305C" stop-opacity="0.36"/>
<stop offset="0.9" stop-color="#00305C" stop-opacity="0.09"/>
<stop offset="1" stop-color="#00305C" stop-opacity="0"/>
</radialGradient>
</defs>
</svg>
