<svg width="386" height="94" viewBox="0 0 386 94" fill="none" xmlns="http://www.w3.org/2000/svg">
<mask id="mask0_1_175" style="mask-type:luminance" maskUnits="userSpaceOnUse" x="0" y="0" width="386" height="94">
<path d="M385.36 0.439941H0.640015V93.2199H385.36V0.439941Z" fill="white"/>
</mask>
<g mask="url(#mask0_1_175)">
<path fill-rule="evenodd" clip-rule="evenodd" d="M215.81 0.579956C209.18 0.579956 204.11 2.92995 200.01 7.12995C194.12 13.2 194.27 20.67 194.27 31.02C194.27 41.37 194.11 48.86 200.01 54.91C204.1 59.12 209.17 61.4799 215.81 61.4799C222.45 61.4799 227.43 59.13 231.52 54.91C237.41 48.86 237.33 41.37 237.33 31.02C237.33 20.67 237.41 13.2 231.52 7.12995C227.43 2.92995 222.44 0.579956 215.81 0.579956ZM223.09 47.84C221.45 49.78 218.91 51.03 215.81 51.03C212.71 51.03 210.08 49.78 208.44 47.84C206.23 45.32 205.65 42.54 205.65 31.01C205.65 19.48 206.22 16.72 208.44 14.19C210.08 12.25 212.7 10.99 215.81 10.99C218.92 10.99 221.45 12.25 223.09 14.19C225.3 16.71 225.95 19.49 225.95 31.01C225.95 42.53 225.3 45.32 223.09 47.84ZM385.17 60.31C385.17 60.31 380.12 46.4 375.03 32.4C369.95 18.41 364.84 4.33995 364.74 4.02995C363.95 1.84995 361.49 0.799957 359.05 0.799957C356.61 0.799957 354.15 1.83995 353.19 4.12995C352.93 4.76995 332.92 60.29 332.91 60.3L332.72 60.83H339.87C342.95 60.76 344.81 58.08 345.92 54.97L350.52 42.49H363.58L360.1 34.17H353.46L358.77 18.09L371.38 54C373.03 58.96 374.32 60.83 379.82 60.83H380.17C380.38 60.83 380.61 60.83 380.83 60.83H385.37L385.18 60.3L385.17 60.31ZM175.8 9.02995V39.68L151.46 0.539955H149.77C144.62 0.469955 140.22 2.34996 140.05 7.57996V61.1C145.41 61.01 151.37 58.81 151.46 52.66V22.11L175.8 61.14V61.16H177.49C182.64 61.23 187.04 59.3499 187.21 54.1199V0.599953C181.86 0.689953 175.89 2.88996 175.8 9.03996M268.61 25.76L261.77 24.75C259.4 24.42 257.52 23.49 256.38 22.41C255.15 21.23 254.66 19.64 254.66 18.13C254.66 15.13 256.23 12.5 259.42 11.29C259.42 11.29 259.46 11.27 259.52 11.25C260.44 10.91 261.51 10.69 262.72 10.62C266.53 10.2 273.14 10.54 279.72 15.95C282.03 12.21 283.01 7.46996 279.08 4.39996V4.41995C279.08 4.41995 279.05 4.39995 279.04 4.37995C274.89 1.61995 270.08 0.449951 263.97 0.449951C251.42 0.449951 243.75 7.91995 243.75 18.56C243.75 23.6 245.14 27.45 247.91 30.29C250.52 32.9 254.19 34.49 259.17 35.25L266.18 36.25C268.87 36.67 270.17 37.26 271.32 38.34C272.54 39.52 273.11 41.28 273.11 43.38C273.11 48.16 269.53 50.75 262.83 50.75C257.45 50.75 252.49 49.49 248.81 45.72H248.78L241.47 53.2599C247.18 59.2199 253.86 61.1499 262.67 61.1499C274.83 61.1499 284.21 54.6099 284.21 43.0399C284.21 37.7499 282.82 33.4 279.72 30.39C277.27 28.03 273.92 26.53 268.63 25.77M315.95 25.76L309.1 24.75C306.74 24.42 304.86 23.49 303.72 22.41C302.49 21.23 302 19.64 302 18.13C302 15.13 303.57 12.5 306.76 11.29C306.76 11.29 306.81 11.27 306.85 11.25C307.79 10.91 308.85 10.69 310.05 10.62C313.87 10.2 320.48 10.54 327.06 15.95C329.37 12.21 330.34 7.46996 326.42 4.39996V4.41995C326.42 4.41995 326.38 4.39995 326.37 4.37995C322.22 1.61995 317.4 0.449951 311.31 0.449951C298.76 0.449951 291.09 7.91995 291.09 18.56C291.09 23.6 292.47 27.45 295.25 30.29C297.86 32.9 301.53 34.49 306.51 35.25L313.53 36.25C316.22 36.67 317.52 37.26 318.67 38.34C319.9 39.52 320.46 41.28 320.46 43.38C320.46 48.16 316.87 50.75 310.19 50.75C304.8 50.75 299.83 49.49 296.16 45.72H296.14L288.82 53.2599C294.53 59.2199 301.23 61.1499 310.03 61.1499C322.18 61.1499 331.56 54.6099 331.56 43.0399C331.56 37.7499 330.18 33.4 327.07 30.39C324.62 28.03 321.28 26.53 315.98 25.77" fill="#99CA3C"/>
<path d="M153.33 90.36C152.06 92.41 149.64 93.21 147.41 93.21C143.7 93.21 140.71 91.6 139.95 87.37L142.29 86.97C142.58 88.72 143.26 89.77 144.52 90.34C145.38 90.72 146.19 90.88 147.4 90.88C148.93 90.88 150.55 90.37 151.3 89.16C151.65 88.62 151.78 88.08 151.78 87.52C151.78 86.25 151.16 85.53 149.98 84.96C149.63 84.8 148.74 84.45 146.51 83.94C143.63 83.26 142.64 82.65 142.05 82.11C141.16 81.27 140.71 80.17 140.71 78.91C140.71 77.51 141.33 76.27 142.43 75.33C143.51 74.41 144.99 74.01 146.87 74.01C149.48 74.01 151.88 74.85 153.19 77.21C153.33 77.42 153.41 77.64 153.73 78.26L151.58 79.26C150.99 78.02 150.64 77.45 149.8 76.97C149.16 76.62 148.24 76.35 146.87 76.35C145.5 76.35 144.53 76.62 143.97 77.08C143.38 77.59 143.08 78.21 143.08 78.91C143.08 79.61 143.35 80.2 143.89 80.58C144.59 81.07 146.26 81.5 147.09 81.68C148.97 82.14 150.29 82.51 151.04 82.87C152.98 83.81 154.16 85.32 154.16 87.53C154.16 88.55 153.89 89.47 153.33 90.38" fill="white"/>
<path d="M179.13 92.9199V74.1399H191.35V76.4499H181.47V81.9899H190.11V84.3099H181.47V90.5999H191.35V92.9199H179.13Z" fill="white"/>
<path d="M229.75 92.9199H227.62V90.9299C226.44 92.4099 224.93 93.1599 223.12 93.1599C220.56 93.1599 218.55 92.0499 217.15 89.9299C216.05 88.2599 215.64 86.4299 215.64 83.5299C215.64 80.6299 216.04 78.7999 217.15 77.1299C218.49 75.0599 220.68 73.8999 223.23 73.8999C225.78 73.8999 227.27 74.7299 229.42 77.2899L227.61 78.7699C225.84 76.6999 224.89 76.2399 223.22 76.2399C221.44 76.2399 220.04 76.9699 219.13 78.3899C218.32 79.5999 218 80.9699 218 83.5299C218 86.0899 218.32 87.4599 219.13 88.6699C220.07 90.1199 221.39 90.8199 223.11 90.8199C224.43 90.8199 225.59 90.1699 226.39 88.8799C227.06 87.8299 227.31 86.5099 227.36 84.9499H222.7V82.6399H229.75L229.72 92.9199H229.75Z" fill="white"/>
<path d="M267.83 90.2C266.67 92.08 264.55 93.13 262.04 93.16C259.54 93.16 257.41 92.11 256.28 90.2C255.26 88.53 255.13 86.46 255.13 84.76V74.13H257.5V84.76C257.5 86.27 257.61 87.85 258.31 89.01C258.98 90.12 260.33 90.82 262.05 90.82C263.77 90.82 265.12 90.12 265.79 89.01C266.49 87.86 266.6 86.27 266.6 84.76V74.13H268.97V84.76C268.97 86.45 268.83 88.53 267.84 90.2" fill="white"/>
<path d="M305.67 92.9199C305.67 92.9199 303.57 89.4799 301.63 86.3299C301.31 85.7899 301.01 85.2599 300.55 84.9099C300.23 84.6699 299.85 84.5099 299.34 84.5099H296.97V92.9299H294.6V74.1499H301.19C302.4 74.1499 303.91 74.2299 305.15 75.0099C306.58 75.8699 307.33 77.4799 307.35 79.3399C307.35 81.1699 306.57 82.7899 305.15 83.6499C304.53 84.0499 303.83 84.2399 303.16 84.3799C303.35 84.6499 303.51 84.8899 303.65 85.1299C305.85 88.7299 308.41 92.9299 308.41 92.9299H305.66L305.67 92.9199ZM303.89 76.9599C303.22 76.5299 302.19 76.4499 301.17 76.4499H296.97V82.1799H301.2C302.19 82.1799 303.22 82.0999 303.89 81.6699C304.57 81.2699 304.99 80.4599 304.99 79.3299C304.99 78.1999 304.56 77.3699 303.89 76.9599Z" fill="white"/>
<path d="M345.35 89.9299C344.01 91.9999 341.8 93.1599 339.24 93.1599C336.68 93.1599 334.5 91.9999 333.13 89.9299C332.03 88.2599 331.63 86.4299 331.63 83.5299C331.63 80.6299 332.03 78.7999 333.13 77.1299C334.5 75.0599 336.68 73.8999 339.24 73.8999C341.8 73.8999 344 75.0599 345.35 77.1299C346.45 78.7999 346.86 80.6299 346.86 83.5299C346.86 86.4299 346.45 88.2699 345.35 89.9299ZM343.36 78.3899C342.45 76.9599 341.02 76.2399 339.24 76.2399C337.46 76.2399 336.04 76.9699 335.12 78.3899C334.31 79.5999 333.99 80.9699 333.99 83.5299C333.99 86.0899 334.31 87.4599 335.12 88.6699C336.04 90.0999 337.46 90.8199 339.24 90.8199C341.02 90.8199 342.44 90.0899 343.36 88.6699C344.17 87.4599 344.49 86.0899 344.49 83.5299C344.49 80.9699 344.17 79.5999 343.36 78.3899Z" fill="white"/>
<path d="M384.4 90.36C383.14 92.41 380.71 93.21 378.48 93.21C374.76 93.21 371.77 91.6 371.02 87.37L373.36 86.97C373.66 88.72 374.33 89.77 375.59 90.34C376.45 90.72 377.26 90.88 378.47 90.88C380 90.88 381.62 90.37 382.37 89.16C382.72 88.62 382.85 88.08 382.85 87.52C382.85 86.25 382.23 85.53 381.05 84.96C380.7 84.8 379.81 84.45 377.58 83.94C374.7 83.26 373.7 82.65 373.11 82.11C372.22 81.27 371.76 80.17 371.76 78.91C371.76 77.51 372.38 76.27 373.48 75.33C374.56 74.41 376.04 74.01 377.92 74.01C380.53 74.01 382.93 74.85 384.25 77.21C384.38 77.42 384.46 77.64 384.79 78.26L382.64 79.26C382.05 78.02 381.7 77.45 380.86 76.97C380.22 76.62 379.3 76.35 377.93 76.35C376.56 76.35 375.59 76.62 375.03 77.08C374.44 77.59 374.14 78.21 374.14 78.91C374.14 79.61 374.41 80.2 374.95 80.58C375.65 81.07 377.32 81.5 378.15 81.68C380.04 82.14 381.35 82.51 382.11 82.87C384.05 83.81 385.23 85.32 385.23 87.53C385.23 88.55 384.96 89.47 384.4 90.38" fill="white"/>
<path d="M118.31 0.589966H116.53V92.89H118.31V0.589966Z" fill="white"/>
<path fill-rule="evenodd" clip-rule="evenodd" d="M94.15 0.609978H11.63C5.56 0.609978 0.640015 5.52998 0.640015 11.6V92.66H83.16C89.23 92.66 94.15 87.74 94.15 81.66V0.599976V0.609978Z" fill="#00305C"/>
</g>
<mask id="mask1_1_175" style="mask-type:luminance" maskUnits="userSpaceOnUse" x="0" y="0" width="95" height="93">
<path d="M11.63 0.609985C5.56 0.609985 0.630005 5.52998 0.630005 11.6V92.66H83.15C89.22 92.66 94.14 87.74 94.14 81.67V0.609985H11.62H11.63Z" fill="white"/>
</mask>
<g mask="url(#mask1_1_175)">
<path d="M94.15 0.609985H0.640015V92.66H94.15V0.609985Z" fill="url(#paint0_radial_1_175)"/>
</g>
<mask id="mask2_1_175" style="mask-type:luminance" maskUnits="userSpaceOnUse" x="3" y="3" width="88" height="88">
<path d="M3.81006 46.6299C3.81006 70.6999 23.3301 90.2099 47.3901 90.2099C71.4501 90.2099 90.9701 70.6999 90.9701 46.6299C90.9701 22.5599 71.4501 3.04993 47.3901 3.04993C23.3301 3.04993 3.81006 22.5599 3.81006 46.6299Z" fill="white"/>
</mask>
<g mask="url(#mask2_1_175)">
<path d="M90.9701 3.04993H3.81006V90.2099H90.9701V3.04993Z" fill="url(#paint1_radial_1_175)"/>
</g>
<mask id="mask3_1_175" style="mask-type:luminance" maskUnits="userSpaceOnUse" x="0" y="0" width="386" height="94">
<path d="M385.36 0.439941H0.640015V93.2199H385.36V0.439941Z" fill="white"/>
</mask>
<g mask="url(#mask3_1_175)">
<path fill-rule="evenodd" clip-rule="evenodd" d="M36.38 30.91C36.04 30.75 35.7 30.4 35.5 30C35.25 29.51 35.18 29.01 35.31 28.64C35.44 28.32 35.69 28.06 36.09 27.83C36.8 27.42 37.32 27.48 37.85 28C38.06 28.18 38.25 28.45 38.36 28.72C38.59 29.21 38.63 29.74 38.49 30.11C38.34 30.42 38.07 30.66 37.63 30.88C37.16 31.1 36.73 31.1 36.38 30.91ZM31.56 33.07C31.16 33.55 30.36 33.94 29.05 34.56C32.25 33.45 32.42 33.43 33.78 36.21C33.57 35.57 33.24 34.29 33.52 33.61C33.68 33.22 34 32.9 34.42 32.73C34.84 32.56 35.29 32.57 35.67 32.73C36.06 32.9 36.38 33.21 36.55 33.63C36.72 34.05 36.7 34.5 36.54 34.89C36.38 35.28 36.05 35.57 35.64 35.77C34.73 36.22 34.17 36.48 33.98 36.57C37.06 35.52 37.46 35.74 38.89 38.82C39.74 41.29 40.02 42.25 38.57 42.86C37.09 43.49 36.62 42.53 35.49 40.09C36.65 43.46 36.56 43.66 33.34 45.17C35.88 44.29 36.93 43.9599 37.48 45.4799C38.01 46.92 37.23 47.44 34.96 48.53C36.1 51.82 35.99 52.02 32.78 53.52C36.13 52.36 36.13 52.33 37.61 55.52C40.72 54.45 40.98 54.56 42.43 57.66C45.57 56.59 46.02 56.87 47.48 60.03C46.61 57.5 46.28 56.4999 47.78 55.8999C49.27 55.2999 49.73 56.23 50.86 58.66C49.99 56.14 49.64 55.12 51.14 54.55C52.61 53.98 52.9 54.7 54.01 57.07C57.12 56 57.39 56.21 58.81 59.21C61.19 58.4 62.26 58.3599 62.9 59.7599C63.58 61.2399 62.64 61.7699 60.16 62.9299C62.74 62.0299 63.72 61.79 64.33 63.3C64.95 64.81 64.07 65.32 61.59 66.47C64.17 65.58 65.14 65.32 65.76 66.84C66.37 68.35 65.5 68.8599 63.02 70.0099C65.59 69.1299 66.56 68.86 67.19 70.36C67.82 71.88 66.94 72.4 64.46 73.56C67.73 72.43 67.86 72.4199 69.29 75.3999C71.67 74.5899 72.72 74.51 73.36 75.92C74.04 77.4 73.1 77.93 70.62 79.09C73.19 78.21 74.17 77.93 74.79 79.44C75.01 79.96 75.03 80.27 74.88 80.63C75.16 80.41 75.42 80.18 75.69 79.95C75.43 79.78 75.26 79.63 75.13 79.32C74.79 78.47 75.2 77.5199 76.04 77.1799C76.82 76.8699 77.65 77.08 78.06 77.8L78.38 77.4799C78.34 77.1799 78.41 76.97 78.53 76.7C78.69 76.31 79.01 75.99 79.43 75.82C79.69 75.72 79.81 75.67 80.07 75.7C80.56 75.16 81.02 74.6 81.48 74.03C81.48 74.03 81.43 74.0099 81.37 73.9799C80.98 73.8099 80.66 73.5 80.49 73.08C80.32 72.66 80.33 72.21 80.49 71.82C80.65 71.43 80.97 71.11 81.39 70.94C81.81 70.77 82.26 70.78 82.65 70.94C82.97 71.07 83.13 71.24 83.33 71.55C83.43 71.4 83.6 71.14 83.71 70.99C83.66 70.24 83.78 70.1 84.61 69.59C84.69 69.45 84.82 69.24 84.91 69.1C84.3 69.23 83.78 69.27 83.34 69.09C82.95 68.92 82.62 68.61 82.46 68.19C82.29 67.77 82.31 67.32 82.46 66.94C82.62 66.55 82.94 66.22 83.36 66.05C83.78 65.88 84.23 65.9 84.62 66.06C85.01 66.23 85.3 66.55 85.5 66.96L85.79 67.56L85.91 67.35C85.43 65.63 85.73 65.08 87.44 64.19C85.61 64.77 84.96 64.7 84.44 63.42C83.9 62.07 84.48 61.43 86.44 60.44C85.78 60.65 84.54 60.97 83.87 60.69C83.48 60.52 83.16 60.2099 82.99 59.7899C82.82 59.3699 82.84 58.92 82.99 58.53C83.16 58.14 83.47 57.8199 83.89 57.6499C84.31 57.4899 84.76 57.5 85.15 57.67C85.54 57.83 85.83 58.16 86.03 58.57L86.75 60.06C85.7 56.97 85.98 56.82 89.12 55.36C86.54 56.25 85.56 56.51 84.94 54.99C84.33 53.48 85.21 52.97 87.69 51.82C85.11 52.71 84.06 52.99 83.51 51.45C83.02 50.06 83.68 49.51 85.75 48.5C85.18 48.69 83.74 49.12 82.99 48.81C82.6 48.64 82.28 48.33 82.11 47.91C81.94 47.49 81.96 47.0399 82.12 46.6499C82.28 46.2699 82.6 45.94 83.02 45.77C83.44 45.6 83.89 45.62 84.28 45.78C84.67 45.95 84.96 46.2699 85.16 46.6799C85.65 47.6799 85.93 48.2699 86.03 48.3699C84.97 45.2799 85.07 44.9899 87.96 43.5399C87.8 43.5999 85.87 44.3099 84.97 43.9299C84.58 43.7599 84.26 43.45 84.09 43.03C83.92 42.61 83.93 42.16 84.09 41.77C84.26 41.38 84.57 41.06 84.99 40.89C85.41 40.72 85.86 40.7399 86.25 40.8999C86.64 41.0699 86.93 41.39 87.13 41.8C87.56 42.69 87.83 43.24 87.93 43.45C87.11 41.08 86.89 40.15 88.32 39.54C89.53 39.03 89.95 39.58 90.72 41.11C90.56 39.86 90.35 38.64 90.08 37.43C89.44 37.12 89.13 36.53 88.78 35.8C88.9 36.19 89.03 36.72 89.08 37.21C89.15 37.55 89.11 37.9 88.98 38.21C88.82 38.6 88.5 38.92 88.08 39.09C87.66 39.26 87.21 39.24 86.82 39.09C86.52 38.96 86.26 38.75 86.08 38.46C85.91 38.25 85.74 38 85.6 37.77C85.66 38.03 85.71 38.3 85.73 38.57C85.8 38.91 85.76 39.26 85.63 39.57C85.46 39.96 85.15 40.28 84.73 40.45C84.31 40.62 83.86 40.61 83.47 40.44C83.17 40.31 82.91 40.1 82.73 39.82C82.53 39.57 82.34 39.28 82.18 39.01C82.26 39.32 82.33 39.68 82.36 40.02C82.43 40.35 82.38 40.69 82.26 40.99C82.09 41.38 81.78 41.6999 81.36 41.8699C80.94 42.0399 80.49 42.0199 80.1 41.8699C79.79 41.7299 79.52 41.52 79.33 41.22C79.15 41 78.99 40.74 78.84 40.5C78.98 41.12 79.06 41.82 78.87 42.28C78.71 42.67 78.39 42.99 77.97 43.16C77.55 43.33 77.1 43.3199 76.71 43.1499C76.32 42.9799 76 42.67 75.83 42.25C75.66 41.83 75.67 41.38 75.83 40.99C75.99 40.6 76.32 40.31 76.73 40.1L78.26 39.37C78.04 39.41 77.1 39.75 76.26 39.82C75.93 39.89 75.6 39.84 75.3 39.73C74.91 39.57 74.59 39.26 74.43 38.85C74.26 38.44 74.28 37.99 74.45 37.61C74.58 37.31 74.81 37.04 75.1 36.85C75.84 36.26 76.88 35.82 76.88 35.82L77.12 35.72C77.12 35.72 77.97 35.39 78.83 35.26C79.21 35.14 79.61 35.17 79.95 35.32C80.26 35.45 80.53 35.67 80.72 35.97C80.92 36.22 81.1 36.5 81.26 36.76C81.19 36.45 81.11 36.1 81.08 35.76C81.01 35.42 81.05 35.08 81.18 34.77C81.34 34.38 81.65 34.06 82.08 33.89C82.5 33.72 82.95 33.74 83.34 33.9C83.64 34.02 83.9 34.24 84.08 34.53C84.26 34.74 84.42 34.98 84.56 35.22C84.5 34.96 84.45 34.68 84.43 34.42C84.36 34.08 84.4 33.73 84.53 33.42C84.69 33.03 85 32.71 85.43 32.54C85.85 32.37 86.3 32.38 86.69 32.55C86.99 32.67 87.25 32.89 87.43 33.17C87.75 33.57 88.03 34.06 88.22 34.43C87.89 33.42 87.74 32.55 88.4 31.7C88.3 31.43 88.2 31.15 88.09 30.87C87.27 30.97 86.78 30.56 86.49 29.76C86.19 28.93 86.29 28.36 86.82 27.93C86.72 27.72 86.61 27.51 86.51 27.3C86.3 27.29 86.19 27.21 86.02 27.15C85.63 26.99 85.31 26.67 85.14 26.25C84.97 25.83 85.01 25.39 85.14 24.99C85.17 24.92 85.19 24.87 85.19 24.87C84.96 24.47 84.71 24.05 84.46 23.66C84.07 23.48 83.86 23.2 83.7 22.8C83.63 22.62 83.62 22.55 83.61 22.36C83.13 21.65 82.58 20.88 82.05 20.2C82.03 20.38 82.01 20.45 81.94 20.62C81.78 21 81.46 21.33 81.04 21.5C80.62 21.67 80.17 21.66 79.78 21.5C79.29 21.29 78.82 20.64 78.49 20.06C78.65 20.71 78.76 21.5 78.56 21.99C78.39 22.38 78.08 22.7 77.66 22.88C77.24 23.05 76.79 23.03 76.4 22.87C76.01 22.7 75.68 22.39 75.52 21.97C75.35 21.55 75.37 21.1 75.53 20.71C75.7 20.32 76.02 20.03 76.43 19.83C77.21 19.45 78.99 18.73 79.81 18.46C80.09 18.37 80.28 18.32 80.55 18.35C80.35 18.11 80.19 17.94 79.98 17.71C79.46 18.27 78.71 18.64 77.93 18.9C76.05 19.54 74.82 19.87 73.43 17.05C73.61 17.6 74.07 19.09 73.75 19.85C73.59 20.24 73.27 20.57 72.85 20.73C72.43 20.9 71.98 20.88 71.59 20.72C71.2 20.55 70.88 20.24 70.71 19.82C70.54 19.4 70.56 18.95 70.72 18.56C70.88 18.17 71.21 17.88 71.62 17.68C72.64 17.19 73.22 16.91 73.31 16.8C70.38 17.8 69.81 17.75 68.51 15.2C69.19 17.24 69.31 18.05 68.04 18.59C66.75 19.13 66.17 18.36 65.17 16.45C65.85 18.49 65.93 19.42 64.66 19.96C63.37 20.5 62.85 20.08 61.86 18.17C62.54 20.23 62.54 20.79 61.26 21.35C59.97 21.9 59.53 21.6 58.52 19.66C59.2 21.69 59.12 22.18 57.85 22.72C56.57 23.26 56.17 23.06 55.18 21.15C56.08 23.86 54.62 24.19 52.88 24.92C51.54 25.48 50.22 25.76 49.1 24.73C48.9 24.51 48.7 24.23 48.54 23.91C48.19 23.18 48.1 22.44 48.32 22.03C48.46 21.78 48.7 21.58 49.06 21.39C50.3 20.76 50.94 21.49 52.07 23.33C51.25 21.34 51.1 20.43 52.33 19.79C53.58 19.16 54.05 19.31 55.17 21.15C54.34 19.15 54.39 18.82 55.63 18.18C56.88 17.54 57.37 17.8 58.51 19.66C57.69 17.68 57.7 17.2 58.93 16.58C60.17 15.95 60.73 16.34 61.85 18.18C60.76 15.54 62.06 14.89 63.74 14.04C65.45 13.18 67.02 12.76 68.5 15.22C67.41 12.57 68.61 11.69 70.31 10.84C70.72 10.63 71.05 10.48 71.45 10.37C70.05 9.44996 68.65 8.63995 67.15 7.87995C67.02 8.01995 66.9 8.09996 66.71 8.18996C65.89 8.58996 64.91 8.24995 64.51 7.42995C64.37 7.13995 64.29 6.86995 64.34 6.56995C63.7 6.30995 63.08 6.04995 62.43 5.81995C62.26 5.95995 62.15 6.05996 61.96 6.14996C61.14 6.54996 60.16 6.20995 59.76 5.38995C59.68 5.21995 59.6 5.07996 59.59 4.89996C58.79 4.66996 57.94 4.44995 57.13 4.26995C57.13 4.26995 57.06 4.31995 57 4.34995C56.26 4.70995 55.4 4.48996 54.95 3.82996C54.79 3.80996 54.64 3.77996 54.48 3.75996C54.88 4.58996 54.53 5.55995 53.72 5.94995C52.9 6.34995 51.92 6.00996 51.52 5.18996C51.22 4.57996 51.33 3.87996 51.75 3.39996C51.03 3.32996 50.32 3.27995 49.59 3.23995C49.44 3.62995 49.17 3.94995 48.77 4.13995C47.95 4.53995 46.97 4.19995 46.57 3.37995C46.54 3.31995 46.48 3.19995 46.48 3.19995H46.03C46.03 3.19995 46.18 3.40995 46.24 3.52995C46.64 4.34995 46.3 5.32996 45.48 5.72996C44.67 6.12996 43.68 5.78996 43.28 4.96996C43.02 4.43996 43.08 3.82996 43.37 3.36996C42.48 3.45996 41.59 3.55995 40.71 3.69995C40 4.31995 39.04 4.81995 39.04 4.81995L38.81 4.92995C38.81 4.92995 37.98 5.31996 37.13 5.50996C36.76 5.64996 36.36 5.64995 36.01 5.52995C35.7 5.41995 35.41 5.19995 35.2 4.91995L34.82 5.03996L34.86 5.15996C34.95 5.48996 34.93 5.84995 34.82 6.16995C34.69 6.56995 34.4 6.90995 33.99 7.10995C33.58 7.30995 33.13 7.31996 32.73 7.18996C32.42 7.07996 32.18 6.88995 31.95 6.62995C31.83 6.46995 31.71 6.30996 31.6 6.14996L31.48 6.19995C31.53 6.36995 31.56 6.53995 31.6 6.74995C31.68 7.13995 31.68 7.42995 31.57 7.74995C31.43 8.14995 31.15 8.48996 30.74 8.68996C30.34 8.88996 29.88 8.89995 29.49 8.76995C29.18 8.65995 28.91 8.47995 28.7 8.20995C28.55 8.01995 28.39 7.80996 28.27 7.61996L28.06 7.71996C28.36 8.99996 27.95 10.19 25.67 11.45C28.19 10.38 29.21 10.03 29.87 11.53C30.44 12.82 29.89 13.42 28.11 14.48C28.77 14.23 29.88 13.89 30.52 14.11C30.92 14.25 31.26 14.54 31.46 14.95C31.66 15.35 31.67 15.81 31.54 16.2C31.4 16.6 31.11 16.94 30.7 17.14C30.29 17.34 29.84 17.35 29.45 17.22C29.05 17.08 28.73 16.77 28.51 16.38C28 15.5 27.7 14.96 27.58 14.79C28.56 17.12 28.88 18.07 27.49 18.75C26.1 19.42 25.55 18.59 24.29 16.36C21.97 17.33 20.92 17.6 20.19 16.24C19.83 15.57 19.68 15.28 19.69 15.28C19.69 15.28 19.9 15.65 20.19 16.24C20.73 17.36 20.07 18.19 18.51 19.11L18.57 19.24C20.24 18.58 21.14 18.61 21.68 19.71C22.22 20.81 21.68 21.54 20.14 22.45L20.2 22.57C21.9 21.91 22.8 21.97 23.35 23.09C23.89 24.21 23.39 24.96 21.82 25.89L21.88 26.02C23.57 25.35 24.48 25.41 25.02 26.52C25.55 27.62 25.07 28.38 23.55 29.28L23.64 29.41C25.85 28.56 25.97 28.84 27.45 31.51C28.76 30.96 29.62 30.69 30.3 30.8C30.69 30.87 31.12 31.2 31.38 31.7C31.64 32.2 31.68 32.73 31.51 33.09M41.03 79.9299C41.03 79.9299 39.05 80.9 38.08 80.58C37.68 80.45 37.33 80.1699 37.12 79.7599C36.91 79.3599 36.89 78.8999 37.02 78.5099C37.15 78.1099 37.43 77.76 37.84 77.56C38.24 77.35 38.7 77.33 39.09 77.45C39.49 77.58 39.82 77.88 40.05 78.27C40.7 79.36 41.02 79.9299 41.02 79.9299M35.26 84.96C35.67 85.77 35.35 86.76 34.54 87.17C33.73 87.58 32.74 87.26 32.33 86.45C31.92 85.64 32.24 84.65 33.05 84.24C33.86 83.83 34.85 84.15 35.26 84.96ZM38.52 83.3C38.93 84.11 38.61 85.0999 37.8 85.5099C36.99 85.9199 36 85.5999 35.59 84.7899C35.18 83.9799 35.5 82.99 36.31 82.58C37.12 82.17 38.11 82.5 38.52 83.3ZM28.57 79.8699C28.98 80.6799 28.66 81.67 27.85 82.08C27.04 82.5 26.05 82.18 25.64 81.36C25.23 80.55 25.55 79.5599 26.36 79.1499C27.17 78.7399 28.16 79.0599 28.57 79.8699ZM31.83 78.21C32.24 79.02 31.92 80.01 31.11 80.42C30.3 80.83 29.31 80.51 28.9 79.7C28.49 78.89 28.81 77.9 29.62 77.49C30.43 77.08 31.42 77.4 31.84 78.21M35.08 76.55C35.49 77.36 35.17 78.3499 34.36 78.7599C33.55 79.1699 32.56 78.8499 32.15 78.0399C31.74 77.2299 32.06 76.24 32.87 75.82C33.68 75.41 34.67 75.7299 35.08 76.5399M23.6 78.1499C24.01 78.9599 23.69 79.95 22.88 80.36C22.07 80.77 21.08 80.45 20.67 79.64C20.26 78.83 20.58 77.8299 21.39 77.4299C22.2 77.0199 23.19 77.3399 23.6 78.1499ZM26.85 76.49C27.26 77.3 26.94 78.29 26.13 78.7C25.32 79.12 24.33 78.7899 23.92 77.9799C23.51 77.1699 23.82 76.18 24.64 75.77C25.45 75.36 26.44 75.68 26.85 76.49ZM30.1 74.83C30.51 75.65 30.19 76.6299 29.38 77.0399C28.57 77.4499 27.58 77.13 27.17 76.32C26.76 75.51 27.08 74.52 27.89 74.11C28.7 73.7 29.7 74.02 30.1 74.82M30.29 83.24C30.7 84.05 30.38 85.04 29.57 85.45C28.76 85.86 27.77 85.5399 27.36 84.7299C26.95 83.9099 27.27 82.93 28.08 82.52C28.89 82.1 29.88 82.43 30.29 83.24ZM33.55 81.58C33.96 82.39 33.64 83.3799 32.83 83.7899C32.02 84.1999 31.03 83.88 30.62 83.07C30.21 82.26 30.53 81.27 31.34 80.86C32.15 80.45 33.14 80.77 33.55 81.58ZM36.8 79.9299C37.21 80.7399 36.89 81.7299 36.08 82.1499C35.27 82.5599 34.28 82.2299 33.87 81.4299C33.46 80.6199 33.78 79.63 34.59 79.21C35.4 78.8 36.39 79.1199 36.8 79.9299ZM37.79 73.19C37.79 73.19 38.75 75.18 38.43 76.14C38.3 76.54 38.01 76.89 37.61 77.1C37.21 77.31 36.76 77.33 36.36 77.2C35.96 77.07 35.61 76.79 35.4 76.38C35.19 75.98 35.17 75.5199 35.3 75.1199C35.43 74.7199 35.73 74.4 36.12 74.16C37.21 73.51 37.79 73.1799 37.79 73.1799M32.81 71.4799C32.81 71.4799 33.78 73.4599 33.46 74.4299C33.33 74.8299 33.05 75.18 32.64 75.39C32.24 75.6 31.78 75.62 31.38 75.49C30.98 75.36 30.63 75.07 30.43 74.67C30.22 74.27 30.2 73.82 30.33 73.42C30.46 73.02 30.76 72.69 31.15 72.46C32.24 71.81 32.81 71.4799 32.81 71.4799ZM21.32 73.07C21.32 73.07 22.29 75.06 21.97 76.03C21.84 76.43 21.56 76.78 21.15 76.99C20.75 77.2 20.3 77.22 19.9 77.09C19.5 76.96 19.15 76.67 18.94 76.27C18.73 75.87 18.71 75.41 18.84 75.02C18.97 74.62 19.27 74.29 19.66 74.06C20.75 73.41 21.32 73.08 21.32 73.08M54.52 12.28C54.92 13.09 54.58 14.08 53.76 14.48C52.94 14.88 51.96 14.54 51.56 13.72C51.16 12.9 51.5 11.92 52.32 11.52C53.14 11.12 54.12 11.46 54.52 12.28ZM57.81 10.68C58.21 11.5 57.87 12.48 57.06 12.88C56.24 13.28 55.26 12.94 54.86 12.12C54.46 11.3 54.8 10.32 55.62 9.91995C56.44 9.51995 57.42 9.85995 57.82 10.68M52.91 8.91995C53.31 9.72995 52.97 10.72 52.15 11.11C51.33 11.51 50.35 11.17 49.96 10.35C49.56 9.52995 49.9 8.54996 50.72 8.14996C51.54 7.74996 52.52 8.08996 52.91 8.90996M56.2 7.31995C56.6 8.13995 56.26 9.11995 55.44 9.51995C54.62 9.91995 53.64 9.57996 53.24 8.75996C52.84 7.93996 53.18 6.95995 54 6.55995C54.82 6.15995 55.8 6.49995 56.2 7.31995ZM59.48 5.71996C59.88 6.53996 59.54 7.51995 58.72 7.91995C57.91 8.31995 56.92 7.97996 56.52 7.15996C56.12 6.33996 56.46 5.35996 57.28 4.96996C58.1 4.56996 59.08 4.90996 59.48 5.72996M62.68 12.54C63.08 13.36 62.74 14.34 61.92 14.74C61.1 15.14 60.12 14.8 59.73 13.98C59.33 13.16 59.66 12.18 60.48 11.78C61.3 11.38 62.28 11.72 62.68 12.54ZM65.97 10.94C66.37 11.76 66.03 12.74 65.21 13.14C64.39 13.54 63.41 13.2 63.01 12.38C62.61 11.56 62.95 10.58 63.77 10.18C64.59 9.77995 65.57 10.12 65.97 10.94ZM69.21 9.34995C69.61 10.17 69.28 11.15 68.46 11.55C67.64 11.95 66.66 11.61 66.26 10.79C65.86 9.96996 66.2 8.98995 67.02 8.58995C67.83 8.18995 68.82 8.52995 69.21 9.33995M60.92 9.15996C61.32 9.97996 60.98 10.96 60.16 11.36C59.34 11.76 58.36 11.42 57.96 10.6C57.57 9.78995 57.9 8.79996 58.72 8.39996C59.54 7.99996 60.52 8.33996 60.92 9.15996ZM64.21 7.55995C64.61 8.37995 64.27 9.35996 63.45 9.75996C62.63 10.16 61.65 9.81995 61.25 8.99995C60.85 8.18995 61.19 7.19996 62.01 6.79996C62.83 6.39996 63.81 6.73995 64.21 7.55995ZM27.52 31.49C27.52 31.49 26.59 29.49 26.92 28.52C27.06 28.12 27.34 27.78 27.75 27.58C28.16 27.38 28.61 27.37 29.01 27.51C29.41 27.65 29.75 27.93 29.95 28.34C30.15 28.75 30.17 29.2 30.03 29.6C29.89 30 29.59 30.31 29.2 30.54C28.1 31.18 27.53 31.5 27.53 31.5M36.43 8.30995C36.83 9.12995 36.49 10.11 35.67 10.51C34.85 10.91 33.87 10.57 33.47 9.74995C33.07 8.92995 33.41 7.94996 34.23 7.54996C35.05 7.14996 36.03 7.48995 36.43 8.30995ZM33.15 9.91995C33.55 10.74 33.21 11.72 32.4 12.12C31.58 12.52 30.59 12.18 30.2 11.36C29.8 10.54 30.14 9.55996 30.96 9.15996C31.78 8.75996 32.76 9.09995 33.16 9.91995M51.22 5.31995C51.62 6.13995 51.28 7.11995 50.47 7.51995C49.65 7.91995 48.67 7.57996 48.27 6.75996C47.87 5.93996 48.21 4.95995 49.03 4.56995C49.85 4.16995 50.83 4.50996 51.23 5.32996M47.94 6.91995C48.34 7.72995 48 8.71996 47.19 9.11996C46.37 9.51996 45.39 9.17996 44.99 8.36996C44.59 7.54996 44.93 6.56995 45.75 6.16995C46.57 5.76995 47.55 6.10995 47.95 6.92995M44.66 8.51995C45.06 9.33995 44.72 10.32 43.9 10.72C43.08 11.12 42.1 10.78 41.7 9.95995C41.3 9.13995 41.64 8.15996 42.45 7.75996C43.27 7.35996 44.25 7.69995 44.65 8.51995M41.37 10.12C41.77 10.94 41.43 11.92 40.61 12.32C39.79 12.72 38.81 12.38 38.41 11.56C38.01 10.74 38.35 9.75995 39.17 9.35995C39.99 8.95995 40.97 9.29996 41.37 10.12ZM38.09 11.72C38.49 12.54 38.15 13.52 37.33 13.92C36.51 14.32 35.53 13.98 35.13 13.16C34.73 12.34 35.07 11.36 35.89 10.97C36.71 10.57 37.69 10.91 38.09 11.73M34.81 13.32C35.21 14.14 34.87 15.12 34.05 15.52C33.23 15.92 32.25 15.58 31.85 14.76C31.45 13.95 31.79 12.96 32.61 12.56C33.43 12.16 34.41 12.5 34.81 13.32ZM24.97 18.12C25.37 18.94 25.02 19.92 24.21 20.32C23.39 20.72 22.41 20.38 22.01 19.56C21.61 18.74 21.95 17.76 22.77 17.36C23.59 16.96 24.57 17.3 24.97 18.12ZM49.6 10.32C50 11.14 49.66 12.13 48.84 12.52C48.02 12.92 47.04 12.58 46.64 11.76C46.24 10.94 46.58 9.95995 47.4 9.55995C48.22 9.15995 49.2 9.49995 49.6 10.32ZM46.32 11.92C46.72 12.74 46.38 13.73 45.56 14.12C44.74 14.52 43.76 14.18 43.36 13.36C42.96 12.54 43.3 11.56 44.12 11.16C44.94 10.76 45.92 11.1 46.32 11.92ZM43.03 13.53C43.43 14.35 43.09 15.33 42.27 15.73C41.45 16.13 40.47 15.79 40.08 14.97C39.68 14.15 40.02 13.17 40.83 12.77C41.65 12.37 42.63 12.71 43.03 13.53ZM39.76 15.13C40.16 15.95 39.82 16.93 39 17.33C38.18 17.73 37.2 17.39 36.8 16.57C36.4 15.75 36.74 14.77 37.55 14.37C38.37 13.97 39.36 14.31 39.75 15.13M36.47 16.73C36.87 17.55 36.53 18.53 35.71 18.93C34.89 19.33 33.91 18.99 33.51 18.17C33.11 17.35 33.45 16.36 34.27 15.97C35.09 15.57 36.07 15.91 36.47 16.73ZM33.19 18.33C33.59 19.15 33.25 20.13 32.43 20.53C31.62 20.93 30.63 20.59 30.23 19.77C29.83 18.95 30.17 17.97 30.99 17.57C31.8 17.17 32.79 17.51 33.19 18.33ZM29.91 19.93C30.31 20.75 29.97 21.74 29.15 22.13C28.33 22.53 27.35 22.19 26.95 21.37C26.55 20.55 26.89 19.57 27.71 19.17C28.52 18.78 29.51 19.11 29.9 19.93M26.63 21.53C27.03 22.35 26.69 23.33 25.88 23.73C25.06 24.13 24.08 23.79 23.68 22.98C23.28 22.16 23.62 21.18 24.44 20.78C25.26 20.38 26.24 20.72 26.64 21.54M51.26 13.73C51.66 14.55 51.32 15.53 50.5 15.93C49.68 16.33 48.7 15.99 48.31 15.17C47.91 14.35 48.25 13.36 49.07 12.97C49.89 12.57 50.87 12.91 51.27 13.73M47.98 15.33C48.38 16.15 48.04 17.13 47.22 17.53C46.41 17.93 45.42 17.59 45.02 16.77C44.62 15.95 44.96 14.97 45.78 14.57C46.6 14.17 47.58 14.51 47.98 15.33ZM44.7 16.93C45.1 17.75 44.76 18.73 43.95 19.12C43.13 19.52 42.14 19.18 41.75 18.37C41.35 17.55 41.69 16.56 42.51 16.17C43.33 15.77 44.31 16.11 44.71 16.93M34.85 21.73C35.25 22.55 34.91 23.53 34.09 23.93C33.27 24.33 32.29 23.99 31.89 23.17C31.49 22.35 31.83 21.37 32.65 20.97C33.47 20.57 34.45 20.91 34.85 21.73ZM31.57 23.33C31.97 24.15 31.63 25.13 30.81 25.53C29.99 25.93 29.01 25.59 28.61 24.77C28.21 23.95 28.55 22.97 29.37 22.57C30.19 22.17 31.17 22.51 31.57 23.32M28.29 24.94C28.69 25.76 28.35 26.74 27.54 27.14C26.72 27.54 25.74 27.2 25.34 26.38C24.94 25.56 25.28 24.58 26.1 24.18C26.92 23.78 27.9 24.12 28.3 24.94M59.49 13.93C59.89 14.75 59.55 15.73 58.73 16.13C57.91 16.53 56.93 16.19 56.53 15.37C56.13 14.55 56.47 13.57 57.29 13.17C58.11 12.77 59.09 13.11 59.49 13.93ZM56.21 15.53C56.6 16.35 56.27 17.33 55.45 17.73C54.63 18.13 53.65 17.79 53.25 16.98C52.85 16.16 53.19 15.18 54 14.78C54.82 14.38 55.8 14.72 56.2 15.54M52.92 17.14C53.32 17.95 52.98 18.94 52.16 19.33C51.35 19.73 50.36 19.39 49.97 18.58C49.57 17.76 49.91 16.78 50.73 16.38C51.55 15.98 52.53 16.32 52.93 17.14M49.64 18.73C50.04 19.55 49.7 20.53 48.88 20.93C48.06 21.33 47.08 20.99 46.68 20.17C46.28 19.35 46.62 18.37 47.44 17.97C48.26 17.57 49.24 17.91 49.64 18.73ZM36.52 25.14C36.92 25.96 36.58 26.94 35.76 27.34C34.95 27.74 33.96 27.4 33.56 26.58C33.16 25.77 33.5 24.78 34.32 24.38C35.13 23.98 36.12 24.32 36.52 25.14ZM33.23 26.74C33.63 27.56 33.29 28.55 32.47 28.94C31.66 29.34 30.67 29 30.27 28.18C29.87 27.36 30.21 26.38 31.03 25.98C31.85 25.58 32.83 25.92 33.23 26.73M37.52 5.95995C38.28 5.51995 38.78 5.22995 39.03 5.09995L39.2 5.00996C39.46 4.90996 40 4.68995 40.8 4.35995C41.22 4.18995 41.66 4.14995 42.06 4.27995C42.46 4.40995 42.81 4.70995 43 5.10995C43.2 5.51995 43.22 5.96996 43.08 6.36996C42.94 6.76996 42.65 7.10995 42.25 7.30995C41.84 7.50995 41.39 7.51995 40.99 7.37995C40.49 7.20995 39.98 6.58996 39.6 6.03996C39.8 6.67996 39.97 7.45995 39.8 7.95995C39.66 8.35995 39.37 8.70996 38.97 8.90996C38.56 9.10996 38.11 9.11995 37.71 8.98995C37.31 8.85995 36.96 8.55996 36.77 8.14996C36.57 7.74996 36.56 7.29996 36.7 6.89996C36.84 6.49996 37.14 6.18995 37.53 5.95995M40.66 20.73C39.91 21.17 39.4 21.45 39.16 21.59L38.99 21.68C38.73 21.78 38.19 22 37.38 22.33C36.96 22.5 36.52 22.54 36.13 22.41C35.73 22.27 35.39 21.98 35.19 21.58C34.99 21.17 34.98 20.72 35.11 20.32C35.25 19.92 35.53 19.58 35.94 19.38C36.35 19.18 36.8 19.17 37.19 19.3C37.7 19.48 38.21 20.09 38.58 20.65C38.37 20.01 38.21 19.22 38.38 18.72C38.52 18.32 38.81 17.98 39.21 17.78C39.62 17.58 40.07 17.57 40.46 17.7C40.86 17.84 41.21 18.12 41.41 18.54C41.61 18.94 41.62 19.39 41.48 19.79C41.34 20.19 41.04 20.51 40.65 20.74M54.71 38.57C54.37 37.73 54.78 36.77 55.62 36.43C56.46 36.09 57.42 36.5 57.76 37.34C58.1 38.19 57.69 39.14 56.85 39.48C56.01 39.82 55.05 39.41 54.71 38.57ZM67.48 70.1799C67.14 69.3299 67.55 68.3799 68.39 68.0399C69.23 67.6999 70.19 68.11 70.53 68.95C70.87 69.79 70.46 70.75 69.62 71.09C68.78 71.43 67.82 71.0199 67.48 70.1799ZM34.98 48.55C34.98 48.55 37.03 47.76 37.98 48.16C38.37 48.32 38.69 48.64 38.86 49.06C39.03 49.48 39.01 49.93 38.85 50.32C38.69 50.71 38.37 51.03 37.95 51.2C37.53 51.37 37.08 51.36 36.69 51.2C36.3 51.04 36.01 50.71 35.81 50.31C35.26 49.16 34.98 48.57 34.98 48.57M71.04 74.61C69.9 75.16 69.3 75.44 69.3 75.44C69.3 75.44 68.51 73.38 68.91 72.44C69.07 72.05 69.39 71.72 69.81 71.56C70.23 71.39 70.68 71.4 71.07 71.56C71.46 71.73 71.78 72.04 71.95 72.46C72.12 72.89 72.11 73.33 71.94 73.72C71.78 74.11 71.45 74.4 71.04 74.61ZM78.58 34.79C77.8 35.17 77.27 35.42 77.02 35.54L76.85 35.62C76.58 35.7 76.03 35.88 75.2 36.16C74.77 36.3 74.33 36.31 73.94 36.15C73.55 35.99 73.23 35.67 73.06 35.25C72.89 34.83 72.91 34.38 73.06 33.99C73.22 33.61 73.54 33.28 73.96 33.11C74.38 32.94 74.83 32.96 75.22 33.11C75.71 33.32 76.18 33.97 76.51 34.55C76.35 33.9 76.23 33.11 76.44 32.61C76.6 32.22 76.92 31.9 77.34 31.73C77.76 31.56 78.21 31.58 78.6 31.73C78.99 31.89 79.31 32.21 79.48 32.63C79.65 33.05 79.64 33.5 79.48 33.89C79.31 34.28 78.99 34.57 78.58 34.78M67.38 21.19C67.04 20.35 67.45 19.39 68.29 19.05C69.13 18.71 70.1 19.12 70.43 19.96C70.78 20.8 70.37 21.76 69.52 22.1C68.68 22.44 67.72 22.03 67.38 21.19ZM63.99 22.56C63.65 21.72 64.05 20.76 64.9 20.42C65.74 20.08 66.7 20.49 67.04 21.33C67.38 22.17 66.97 23.13 66.13 23.47C65.29 23.81 64.33 23.4 63.99 22.56ZM60.61 23.93C60.27 23.09 60.67 22.13 61.52 21.79C62.36 21.45 63.32 21.86 63.66 22.7C64 23.54 63.59 24.5 62.75 24.84C61.91 25.18 60.95 24.77 60.61 23.92M57.22 25.3C56.88 24.45 57.28 23.5 58.13 23.16C58.97 22.82 59.93 23.23 60.27 24.07C60.61 24.91 60.2 25.87 59.36 26.21C58.52 26.55 57.56 26.14 57.22 25.3ZM72.18 23.34C71.84 22.5 72.25 21.54 73.09 21.2C73.93 20.86 74.89 21.27 75.23 22.11C75.57 22.95 75.16 23.91 74.32 24.25C73.48 24.59 72.52 24.18 72.18 23.34ZM68.8 24.7C68.46 23.86 68.87 22.9 69.71 22.56C70.55 22.22 71.51 22.63 71.85 23.47C72.19 24.31 71.78 25.27 70.94 25.61C70.09 25.95 69.14 25.54 68.8 24.7ZM65.41 26.07C65.07 25.23 65.47 24.27 66.32 23.93C67.16 23.59 68.12 24 68.46 24.84C68.8 25.68 68.39 26.64 67.55 26.98C66.71 27.32 65.75 26.91 65.41 26.07ZM80.37 24.12C80.03 23.28 80.44 22.32 81.28 21.98C82.12 21.64 83.08 22.05 83.42 22.89C83.76 23.73 83.35 24.69 82.51 25.03C81.67 25.37 80.71 24.97 80.37 24.12ZM76.99 25.48C76.65 24.64 77.06 23.68 77.9 23.34C78.74 23 79.7 23.41 80.04 24.25C80.38 25.09 79.97 26.05 79.13 26.39C78.29 26.73 77.33 26.32 76.99 25.48ZM73.6 26.85C73.26 26.01 73.67 25.05 74.51 24.71C75.35 24.37 76.31 24.78 76.65 25.62C76.99 26.46 76.58 27.42 75.74 27.76C74.9 28.1 73.94 27.69 73.6 26.85ZM70.22 28.22C69.88 27.38 70.29 26.42 71.13 26.08C71.97 25.74 72.93 26.15 73.27 26.99C73.61 27.83 73.2 28.79 72.36 29.13C71.52 29.47 70.56 29.06 70.22 28.22ZM66.83 29.59C66.49 28.75 66.9 27.79 67.74 27.45C68.58 27.11 69.55 27.52 69.88 28.36C70.22 29.2 69.81 30.16 68.97 30.5C68.13 30.84 67.17 30.43 66.83 29.59ZM53.29 35.06C52.95 34.21 53.36 33.26 54.2 32.92C55.04 32.58 56 32.99 56.34 33.83C56.68 34.67 56.27 35.64 55.43 35.97C54.59 36.31 53.63 35.9 53.29 35.06ZM49.9 36.43C49.56 35.59 49.97 34.63 50.81 34.29C51.65 33.95 52.61 34.36 52.95 35.2C53.29 36.04 52.88 37 52.04 37.34C51.2 37.69 50.24 37.28 49.9 36.43ZM46.52 37.79C46.18 36.95 46.59 35.99 47.43 35.65C48.27 35.31 49.23 35.72 49.57 36.56C49.91 37.4 49.5 38.36 48.66 38.7C47.82 39.04 46.86 38.63 46.52 37.79ZM43.13 39.16C42.79 38.32 43.2 37.35 44.04 37.02C44.89 36.68 45.84 37.09 46.18 37.93C46.52 38.77 46.11 39.73 45.27 40.07C44.43 40.41 43.47 40.01 43.13 39.16ZM39.74 40.53C39.4 39.69 39.81 38.73 40.65 38.39C41.49 38.05 42.45 38.46 42.79 39.3C43.13 40.14 42.72 41.1 41.88 41.44C41.04 41.78 40.08 41.37 39.74 40.53ZM81.79 27.63C81.45 26.79 81.86 25.83 82.7 25.49C83.54 25.15 84.5 25.56 84.84 26.4C85.18 27.25 84.77 28.2 83.93 28.54C83.09 28.88 82.13 28.47 81.79 27.63ZM78.41 29C78.07 28.16 78.48 27.2 79.32 26.86C80.16 26.52 81.12 26.93 81.46 27.77C81.8 28.61 81.39 29.57 80.55 29.91C79.71 30.25 78.75 29.84 78.41 29ZM75.02 30.36C74.68 29.52 75.09 28.56 75.93 28.22C76.77 27.88 77.73 28.29 78.07 29.13C78.41 29.97 78 30.93 77.16 31.27C76.32 31.61 75.36 31.2 75.02 30.36ZM71.63 31.73C71.29 30.89 71.7 29.93 72.54 29.59C73.38 29.25 74.34 29.66 74.68 30.5C75.02 31.34 74.61 32.3 73.77 32.64C72.93 32.98 71.97 32.57 71.63 31.73ZM68.25 33.1C67.91 32.26 68.32 31.3 69.16 30.96C70 30.62 70.96 31.03 71.3 31.88C71.64 32.72 71.23 33.68 70.39 34.02C69.55 34.37 68.59 33.95 68.25 33.11M64.87 34.47C64.53 33.63 64.93 32.67 65.78 32.33C66.62 31.98 67.58 32.4 67.92 33.24C68.26 34.08 67.85 35.04 67.01 35.38C66.17 35.72 65.21 35.31 64.87 34.47ZM61.48 35.83C61.13 34.99 61.55 34.03 62.39 33.69C63.23 33.35 64.19 33.76 64.53 34.6C64.87 35.44 64.46 36.4 63.62 36.74C62.78 37.08 61.82 36.67 61.48 35.83ZM58.09 37.2C57.75 36.36 58.16 35.4 59 35.06C59.84 34.71 60.8 35.12 61.14 35.97C61.48 36.81 61.07 37.77 60.23 38.11C59.39 38.45 58.43 38.04 58.09 37.2ZM51.32 39.94C50.98 39.1 51.39 38.14 52.23 37.8C53.07 37.46 54.03 37.87 54.37 38.71C54.71 39.55 54.3 40.51 53.46 40.85C52.62 41.19 51.66 40.78 51.32 39.94ZM47.94 41.3C47.6 40.46 48.01 39.5 48.85 39.16C49.69 38.82 50.65 39.23 50.99 40.07C51.33 40.91 50.92 41.87 50.08 42.21C49.24 42.55 48.28 42.14 47.94 41.3ZM44.55 42.67C44.21 41.83 44.62 40.87 45.46 40.53C46.3 40.19 47.26 40.6 47.6 41.44C47.94 42.28 47.54 43.24 46.69 43.58C45.85 43.92 44.88 43.51 44.55 42.67ZM41.16 44.0399C40.82 43.1999 41.23 42.2399 42.07 41.8999C42.91 41.5599 43.87 41.96 44.21 42.81C44.55 43.65 44.14 44.61 43.3 44.95C42.46 45.29 41.5 44.8799 41.16 44.0399ZM37.78 45.41C37.44 44.56 37.85 43.61 38.69 43.27C39.53 42.93 40.49 43.3399 40.83 44.1799C41.17 45.0199 40.76 45.98 39.92 46.32C39.08 46.66 38.12 46.25 37.78 45.41ZM71.09 40.1199C70.75 39.2799 71.16 38.32 72 37.98C72.84 37.64 73.81 38.05 74.14 38.89C74.48 39.73 74.07 40.69 73.23 41.03C72.39 41.37 71.43 40.9599 71.09 40.1199ZM67.7 41.49C67.36 40.65 67.77 39.69 68.61 39.35C69.45 39.01 70.41 39.4199 70.75 40.2599C71.09 41.0999 70.68 42.0599 69.84 42.3999C69 42.7399 68.04 42.33 67.7 41.49ZM64.32 42.86C63.98 42.02 64.39 41.06 65.23 40.72C66.07 40.38 67.03 40.79 67.37 41.63C67.71 42.47 67.3 43.44 66.46 43.77C65.62 44.11 64.66 43.7 64.32 42.86ZM60.93 44.2299C60.59 43.3899 61 42.43 61.84 42.09C62.68 41.76 63.64 42.16 63.98 43C64.32 43.85 63.91 44.8 63.07 45.14C62.23 45.48 61.27 45.0699 60.93 44.2299ZM57.54 45.6C57.2 44.76 57.61 43.8 58.45 43.46C59.3 43.12 60.25 43.5299 60.59 44.3699C60.93 45.2099 60.52 46.1699 59.68 46.5099C58.84 46.8499 57.88 46.44 57.54 45.6ZM54.16 46.96C53.82 46.12 54.23 45.16 55.07 44.82C55.91 44.48 56.88 44.8899 57.21 45.7299C57.55 46.5699 57.14 47.5299 56.3 47.8699C55.46 48.2099 54.5 47.8 54.16 46.96ZM50.77 48.33C50.43 47.49 50.84 46.53 51.68 46.19C52.52 45.85 53.48 46.26 53.82 47.1C54.16 47.94 53.75 48.9 52.91 49.24C52.07 49.59 51.11 49.17 50.77 48.33ZM47.39 49.7C47.05 48.86 47.46 47.9 48.3 47.56C49.14 47.22 50.1 47.63 50.44 48.47C50.78 49.31 50.37 50.27 49.53 50.61C48.69 50.95 47.73 50.54 47.39 49.7ZM44 51.07C43.66 50.23 44.07 49.2699 44.91 48.9299C45.75 48.5899 46.71 49 47.05 49.84C47.39 50.68 46.98 51.6399 46.14 51.9799C45.3 52.3199 44.34 51.91 44 51.07ZM40.62 52.44C40.28 51.6 40.69 50.64 41.53 50.3C42.37 49.96 43.33 50.37 43.67 51.21C44.01 52.05 43.6 53.02 42.76 53.35C41.92 53.69 40.96 53.29 40.62 52.44ZM72.51 43.64C72.17 42.8 72.58 41.84 73.42 41.5C74.26 41.16 75.22 41.57 75.56 42.41C75.9 43.25 75.49 44.21 74.65 44.55C73.81 44.89 72.85 44.48 72.51 43.64ZM69.12 45C68.78 44.16 69.18 43.2 70.03 42.86C70.87 42.52 71.83 42.93 72.17 43.77C72.51 44.61 72.1 45.57 71.26 45.91C70.42 46.25 69.46 45.84 69.12 45ZM65.73 46.3699C65.39 45.5299 65.8 44.5699 66.64 44.2299C67.48 43.8899 68.44 44.3 68.78 45.14C69.12 45.98 68.75 46.98 67.91 47.31C67.07 47.65 66.07 47.2099 65.73 46.3699ZM62.38 47.77C62.04 46.93 62.41 45.93 63.25 45.59C64.09 45.25 65.05 45.66 65.39 46.5C65.73 47.34 65.36 48.33 64.52 48.67C63.68 49.01 62.72 48.5999 62.38 47.7599M59 49.14C58.66 48.3 59.07 47.34 59.91 47C60.75 46.66 61.71 47.07 62.05 47.91C62.39 48.75 61.98 49.71 61.14 50.05C60.3 50.39 59.34 49.98 59 49.14ZM55.58 50.4799C55.24 49.6399 55.65 48.68 56.49 48.34C57.33 48 58.32 48.44 58.66 49.28C59 50.13 58.56 51.05 57.72 51.39C56.88 51.73 55.92 51.3199 55.58 50.4799ZM52.2 51.84C51.85 51 52.26 50.04 53.11 49.7C53.95 49.36 54.91 49.77 55.25 50.61C55.59 51.45 55.18 52.41 54.34 52.75C53.5 53.09 52.54 52.68 52.2 51.84ZM48.81 53.21C48.47 52.37 48.88 51.41 49.72 51.07C50.56 50.73 51.52 51.1399 51.86 51.9799C52.21 52.8299 51.79 53.7799 50.95 54.1199C50.11 54.4599 49.15 54.05 48.81 53.21ZM45.42 54.58C45.08 53.74 45.49 52.78 46.33 52.44C47.17 52.1 48.13 52.51 48.47 53.35C48.81 54.19 48.4 55.16 47.56 55.49C46.72 55.83 45.76 55.42 45.42 54.58ZM80.7 44.42C80.36 43.58 80.77 42.62 81.61 42.28C82.45 41.94 83.41 42.35 83.75 43.19C84.09 44.03 83.68 44.99 82.84 45.33C82 45.67 81.04 45.26 80.7 44.42ZM77.31 45.78C76.97 44.94 77.38 43.97 78.22 43.64C79.06 43.3 80.02 43.71 80.36 44.55C80.7 45.39 80.29 46.35 79.45 46.69C78.61 47.03 77.65 46.62 77.31 45.78ZM73.96 47.1799C73.62 46.3399 73.99 45.35 74.84 45C75.68 44.66 76.64 45.07 76.98 45.91C77.32 46.75 76.95 47.74 76.11 48.08C75.27 48.42 74.31 48.01 73.97 47.17M70.57 48.55C70.23 47.71 70.6 46.7099 71.44 46.3699C72.28 46.0299 73.27 46.47 73.61 47.31C73.95 48.15 73.54 49.11 72.7 49.45C71.86 49.79 70.9 49.3799 70.56 48.5399M67.19 49.92C66.85 49.08 67.26 48.12 68.1 47.78C68.94 47.44 69.9 47.85 70.24 48.69C70.58 49.53 70.17 50.49 69.33 50.83C68.49 51.17 67.53 50.76 67.19 49.92ZM63.8 51.2899C63.46 50.4499 63.87 49.4799 64.71 49.1499C65.55 48.8099 66.51 49.21 66.85 50.06C67.19 50.9 66.78 51.86 65.94 52.2C65.1 52.54 64.14 52.1299 63.8 51.2899ZM60.42 52.6499C60.08 51.8099 60.49 50.8499 61.33 50.5099C62.17 50.1699 63.13 50.58 63.47 51.42C63.81 52.26 63.41 53.22 62.56 53.56C61.72 53.9 60.76 53.4999 60.42 52.6499ZM57 53.99C56.66 53.15 57.1 52.22 57.94 51.88C58.79 51.54 59.74 51.9499 60.08 52.7899C60.42 53.6299 60.01 54.5899 59.17 54.9299C58.33 55.2699 57.34 54.83 57 53.99ZM78.77 49.33C78.42 48.49 78.83 47.53 79.68 47.19C80.52 46.85 81.45 47.23 81.79 48.06C82.13 48.9 81.75 49.9 80.91 50.24C80.07 50.58 79.11 50.17 78.77 49.33ZM75.38 50.69C75.04 49.85 75.44 48.89 76.29 48.55C77.13 48.21 78.09 48.62 78.43 49.46C78.78 50.3 78.37 51.26 77.52 51.6C76.68 51.94 75.72 51.53 75.38 50.69ZM68.61 53.4299C68.27 52.5899 68.68 51.6299 69.52 51.2899C70.36 50.9499 71.32 51.36 71.66 52.2C72 53.04 71.59 54 70.75 54.34C69.91 54.68 68.95 54.2699 68.61 53.4299ZM65.22 54.8C64.88 53.96 65.29 53 66.13 52.66C66.97 52.31 67.94 52.73 68.27 53.57C68.61 54.41 68.2 55.37 67.36 55.71C66.52 56.05 65.56 55.64 65.22 54.8ZM61.84 56.17C61.5 55.33 61.91 54.37 62.75 54.03C63.59 53.69 64.56 54.1 64.89 54.94C65.23 55.78 64.82 56.74 63.98 57.08C63.14 57.42 62.18 57.01 61.84 56.17ZM80.15 52.81C79.81 51.97 80.22 51.01 81.06 50.67C81.9 50.33 82.86 50.74 83.2 51.58C83.54 52.42 83.13 53.38 82.29 53.72C81.45 54.06 80.49 53.65 80.15 52.81ZM76.8 54.21C76.46 53.37 76.87 52.41 77.71 52.07C78.55 51.73 79.51 52.1399 79.85 52.9799C80.19 53.8199 79.78 54.7799 78.94 55.1199C78.1 55.4599 77.14 55.05 76.8 54.21ZM73.41 55.58C73.07 54.74 73.48 53.78 74.32 53.44C75.16 53.1 76.12 53.51 76.46 54.35C76.8 55.19 76.39 56.15 75.55 56.49C74.71 56.83 73.75 56.42 73.41 55.58ZM70.03 56.95C69.69 56.11 70.1 55.15 70.94 54.81C71.78 54.47 72.74 54.88 73.08 55.72C73.42 56.57 72.98 57.49 72.14 57.83C71.3 58.17 70.37 57.79 70.03 56.96M66.61 58.27C66.27 57.43 66.71 56.51 67.55 56.17C68.4 55.83 69.35 56.24 69.69 57.07C70.03 57.92 69.59 58.84 68.74 59.19C67.9 59.53 66.94 59.12 66.6 58.27M63.22 59.64C62.88 58.8 63.29 57.84 64.13 57.5C64.97 57.17 65.93 57.57 66.27 58.42C66.61 59.26 66.2 60.22 65.36 60.56C64.52 60.9 63.56 60.4899 63.22 59.6499M81.57 56.32C81.23 55.48 81.64 54.5199 82.48 54.1799C83.32 53.8399 84.28 54.25 84.62 55.09C84.96 55.93 84.55 56.8899 83.71 57.2299C82.87 57.5699 81.91 57.16 81.57 56.32ZM78.18 57.6799C77.84 56.8399 78.28 55.92 79.12 55.57C79.96 55.23 80.92 55.6399 81.26 56.4799C81.6 57.3199 81.16 58.25 80.32 58.59C79.48 58.93 78.52 58.52 78.18 57.67M74.8 59.06C74.46 58.21 74.9 57.29 75.74 56.95C76.58 56.61 77.51 56.98 77.85 57.82C78.19 58.66 77.78 59.62 76.94 59.96C76.1 60.3 75.14 59.89 74.8 59.05M71.41 60.42C71.07 59.58 71.48 58.62 72.32 58.28C73.16 57.94 74.12 58.35 74.46 59.19C74.8 60.03 74.39 60.99 73.55 61.33C72.71 61.67 71.75 61.26 71.41 60.42ZM68.03 61.7899C67.69 60.9499 68.1 59.9899 68.94 59.6499C69.78 59.2999 70.74 59.72 71.08 60.56C71.42 61.4 71.02 62.36 70.17 62.7C69.33 63.05 68.37 62.6399 68.03 61.7899ZM64.64 63.16C64.3 62.32 64.71 61.36 65.55 61.02C66.4 60.68 67.35 61.0899 67.69 61.9299C68.03 62.7699 67.62 63.73 66.78 64.07C65.94 64.41 64.98 64 64.64 63.16ZM79.6 61.2C79.26 60.36 79.67 59.4 80.51 59.06C81.35 58.72 82.31 59.13 82.65 59.97C82.99 60.81 82.58 61.77 81.74 62.11C80.9 62.45 79.94 62.04 79.6 61.2ZM76.22 62.57C75.88 61.73 76.29 60.7699 77.13 60.4299C77.97 60.0899 78.93 60.5 79.27 61.34C79.61 62.18 79.2 63.1399 78.36 63.4799C77.52 63.8199 76.55 63.41 76.22 62.57ZM72.83 63.94C72.49 63.1 72.9 62.13 73.74 61.8C74.58 61.45 75.54 61.86 75.88 62.71C76.22 63.55 75.81 64.51 74.97 64.85C74.13 65.19 73.17 64.78 72.83 63.94ZM69.45 65.3C69.11 64.46 69.52 63.5 70.36 63.16C71.2 62.82 72.16 63.23 72.5 64.07C72.84 64.91 72.43 65.87 71.59 66.21C70.75 66.55 69.79 66.14 69.45 65.3ZM66.06 66.67C65.72 65.83 66.13 64.87 66.97 64.53C67.81 64.19 68.77 64.6 69.11 65.44C69.45 66.28 69.04 67.24 68.2 67.58C67.36 67.92 66.4 67.51 66.06 66.67ZM81.02 64.71C80.68 63.87 81.09 62.9 81.93 62.57C82.77 62.23 83.73 62.6399 84.07 63.4799C84.41 64.3199 84 65.2799 83.16 65.6199C82.32 65.9599 81.36 65.55 81.02 64.71ZM77.63 66.08C77.29 65.24 77.7 64.28 78.54 63.94C79.38 63.6 80.34 64.01 80.68 64.86C81.02 65.69 80.61 66.66 79.77 67C78.93 67.34 77.97 66.93 77.63 66.09M74.25 67.45C73.91 66.61 74.32 65.65 75.16 65.31C76 64.97 76.96 65.38 77.3 66.22C77.64 67.07 77.23 68.02 76.39 68.36C75.55 68.7 74.59 68.29 74.25 67.45ZM70.86 68.81C70.52 67.97 70.93 67.01 71.77 66.67C72.61 66.33 73.57 66.74 73.91 67.58C74.25 68.42 73.84 69.37 73 69.72C72.16 70.06 71.2 69.65 70.86 68.81ZM79.06 69.59C78.72 68.74 79.13 67.79 79.97 67.45C80.81 67.1 81.77 67.51 82.11 68.35C82.45 69.19 82.04 70.16 81.2 70.49C80.36 70.83 79.4 70.42 79.06 69.58M75.67 70.96C75.33 70.12 75.74 69.16 76.58 68.82C77.42 68.48 78.38 68.8899 78.72 69.7299C79.06 70.5699 78.65 71.5299 77.81 71.8699C76.97 72.2099 76.01 71.8 75.67 70.96ZM72.28 72.33C71.94 71.48 72.35 70.53 73.19 70.19C74.03 69.85 74.99 70.26 75.33 71.1C75.67 71.94 75.26 72.9 74.42 73.24C73.58 73.58 72.62 73.18 72.28 72.33ZM77.09 74.47C76.75 73.63 77.16 72.67 78 72.33C78.85 71.99 79.8 72.39 80.14 73.24C80.48 74.08 80.07 75.04 79.23 75.38C78.39 75.71 77.42 75.31 77.09 74.47ZM73.7 75.84C73.36 74.99 73.77 74.03 74.61 73.7C75.45 73.35 76.41 73.77 76.75 74.61C77.09 75.45 76.68 76.41 75.84 76.75C75 77.09 74.04 76.68 73.7 75.84ZM83.21 31.14C82.87 30.3 83.28 29.34 84.12 29C84.96 28.66 85.93 29.07 86.26 29.91C86.6 30.75 86.19 31.71 85.35 32.05C84.51 32.39 83.55 31.98 83.21 31.14ZM79.83 32.51C79.49 31.67 79.9 30.71 80.74 30.37C81.58 30.03 82.54 30.44 82.88 31.28C83.22 32.12 82.81 33.08 81.97 33.42C81.13 33.76 80.17 33.35 79.83 32.51ZM69.67 36.61C69.33 35.77 69.74 34.81 70.58 34.47C71.42 34.13 72.38 34.54 72.72 35.38C73.06 36.22 72.66 37.18 71.81 37.52C70.97 37.86 70.01 37.45 69.67 36.61ZM66.28 37.98C65.94 37.14 66.35 36.18 67.19 35.84C68.03 35.5 68.99 35.91 69.33 36.75C69.67 37.59 69.26 38.55 68.42 38.89C67.58 39.23 66.62 38.82 66.28 37.98ZM62.9 39.34C62.56 38.5 62.97 37.54 63.81 37.2C64.65 36.86 65.61 37.27 65.95 38.11C66.29 38.95 65.88 39.91 65.04 40.25C64.2 40.59 63.24 40.18 62.9 39.34ZM59.51 40.71C59.17 39.87 59.58 38.91 60.42 38.57C61.26 38.23 62.22 38.64 62.56 39.48C62.9 40.32 62.5 41.2799 61.65 41.6199C60.81 41.9599 59.85 41.55 59.51 40.71ZM56.13 42.08C55.79 41.24 56.2 40.28 57.04 39.94C57.88 39.6 58.84 40.01 59.18 40.85C59.52 41.69 59.11 42.65 58.27 42.99C57.43 43.33 56.47 42.92 56.13 42.08ZM52.74 43.45C52.4 42.61 52.81 41.65 53.65 41.31C54.5 40.97 55.45 41.38 55.79 42.22C56.13 43.06 55.72 44.02 54.88 44.36C54.04 44.7 53.08 44.29 52.74 43.45ZM49.35 44.82C49.01 43.98 49.42 43.0199 50.26 42.6799C51.1 42.3399 52.06 42.75 52.4 43.59C52.74 44.43 52.34 45.3899 51.49 45.7299C50.65 46.0699 49.69 45.66 49.35 44.82ZM45.97 46.1799C45.63 45.3399 46.04 44.3799 46.88 44.0399C47.72 43.6999 48.68 44.11 49.02 44.95C49.36 45.79 48.95 46.75 48.11 47.09C47.27 47.43 46.31 47.0199 45.97 46.1799ZM42.58 47.55C42.24 46.71 42.65 45.74 43.49 45.41C44.33 45.07 45.29 45.48 45.63 46.32C45.97 47.16 45.56 48.12 44.72 48.46C43.88 48.81 42.92 48.39 42.58 47.55ZM39.2 48.92C38.86 48.08 39.27 47.12 40.11 46.78C40.95 46.44 41.91 46.85 42.25 47.69C42.59 48.53 42.19 49.49 41.34 49.83C40.5 50.17 39.54 49.76 39.2 48.92ZM37.62 55.5399C37.62 55.5399 36.84 53.4799 37.24 52.5399C37.4 52.1499 37.72 51.83 38.14 51.66C38.56 51.49 39.01 51.51 39.4 51.67C39.79 51.83 40.11 52.15 40.28 52.57C40.45 52.99 40.44 53.44 40.28 53.83C40.12 54.22 39.79 54.51 39.38 54.72C38.24 55.27 37.64 55.55 37.64 55.55M42.44 57.69C42.44 57.69 41.65 55.63 42.04 54.69C42.21 54.3 42.52 53.98 42.94 53.81C43.36 53.64 43.81 53.65 44.2 53.81C44.59 53.97 44.92 54.29 45.08 54.71C45.25 55.13 45.23 55.58 45.07 55.97C44.91 56.36 44.58 56.65 44.17 56.85C43.03 57.4 42.43 57.6799 42.43 57.6799M54.02 57.1C54.02 57.1 53.23 55.04 53.63 54.1C53.79 53.71 54.1 53.39 54.53 53.22C54.95 53.05 55.4 53.0699 55.79 53.2299C56.18 53.3999 56.5 53.71 56.67 54.13C56.84 54.55 56.82 55 56.67 55.39C56.5 55.78 56.18 56.07 55.77 56.27C54.63 56.83 54.04 57.1 54.04 57.1M58.82 59.24C58.82 59.24 58.06 57.21 58.46 56.28C58.63 55.89 58.94 55.5699 59.36 55.3999C59.78 55.2299 60.23 55.25 60.62 55.41C61.01 55.58 61.33 55.89 61.5 56.31C61.67 56.73 61.62 57.14 61.45 57.53C61.29 57.92 60.96 58.21 60.55 58.42C59.4 58.97 58.81 59.25 58.81 59.25M56.16 28.04C56.58 27.87 57.03 27.89 57.41 28.06C57.88 28.25 58.32 28.84 58.65 29.4C58.59 29.14 58.54 28.85 58.52 28.58C58.45 28.24 58.48 27.89 58.61 27.58C58.76 27.23 59.02 26.94 59.38 26.76C60.09 26.26 60.93 25.9 60.93 25.9L61.17 25.8C61.17 25.8 62.23 25.39 63.17 25.31C63.51 25.24 63.86 25.28 64.17 25.4C64.56 25.56 64.88 25.87 65.04 26.28C65.21 26.69 65.19 27.14 65.02 27.52C64.9 27.82 64.68 28.07 64.39 28.25C63.74 28.78 62.83 29.19 62.62 29.28C62.86 29.23 63.44 29.04 64.35 28.74C64.78 28.6 65.22 28.59 65.61 28.74C66 28.9 66.32 29.22 66.5 29.64C66.67 30.06 66.65 30.51 66.49 30.9C66.33 31.29 66.01 31.61 65.59 31.78C65.17 31.95 64.72 31.93 64.33 31.77C63.77 31.53 63.25 30.72 62.91 30.11C63.01 30.48 63.12 30.93 63.16 31.37C63.23 31.71 63.19 32.06 63.06 32.37C62.89 32.76 62.58 33.08 62.16 33.25C61.74 33.42 61.29 33.41 60.9 33.25C60.6 33.12 60.34 32.9 60.16 32.62C59.97 32.4 59.8 32.14 59.65 31.89C59.79 32.51 59.87 33.21 59.68 33.66C59.51 34.05 59.2 34.37 58.78 34.54C58.36 34.71 57.91 34.69 57.52 34.54C57.13 34.38 56.81 34.06 56.64 33.64C56.47 33.22 56.48 32.77 56.64 32.38C56.81 31.99 57.13 31.7 57.54 31.5L59.04 30.67L57.38 31.1C56.96 31.27 56.51 31.25 56.12 31.09C55.63 30.88 55.16 30.23 54.83 29.65C54.9 29.95 54.96 30.27 54.99 30.57C55.06 30.91 55.02 31.26 54.89 31.57C54.73 31.96 54.41 32.28 53.99 32.45C53.57 32.62 53.12 32.6 52.73 32.45C52.43 32.32 52.17 32.1 51.99 31.82C51.78 31.56 51.59 31.28 51.43 31C51.51 31.31 51.57 31.66 51.6 32C51.67 32.33 51.63 32.66 51.5 32.96C51.33 33.35 51.02 33.67 50.6 33.85C50.18 34.02 49.73 34 49.34 33.84C49.03 33.71 48.76 33.49 48.58 33.19C48.38 32.94 48.2 32.66 48.04 32.4C48.11 32.71 48.18 33.05 48.21 33.37C48.28 33.7 48.24 34.04 48.11 34.34C47.95 34.73 47.63 35.06 47.22 35.22C46.8 35.39 46.35 35.38 45.96 35.22C45.65 35.09 45.38 34.87 45.19 34.57C44.97 34.3 44.77 33.99 44.61 33.7C44.7 34.03 44.77 34.41 44.8 34.76C44.86 35.09 44.82 35.43 44.7 35.72C44.54 36.11 44.23 36.43 43.81 36.61C43.39 36.78 42.94 36.76 42.55 36.59C42.24 36.46 41.97 36.24 41.79 35.94C41.42 35.48 41.11 34.9 40.93 34.54L41.35 35.83C41.49 36.27 41.51 36.7 41.35 37.09C41.18 37.48 40.87 37.8 40.45 37.97C40.03 38.14 39.58 38.13 39.19 37.97C38.8 37.8 38.47 37.49 38.31 37.07C38.14 36.65 38.16 36.2 38.32 35.81C38.68 34.96 40.35 34.08 40.66 33.94L39.03 34.47C38.6 34.61 38.16 34.62 37.77 34.45C37.38 34.29 37.06 33.98 36.89 33.56C36.72 33.14 36.74 32.69 36.9 32.3C37.06 31.91 37.38 31.58 37.8 31.42C38.22 31.25 38.67 31.27 39.06 31.42C39.53 31.63 39.99 32.24 40.32 32.81C40.25 32.53 40.2 32.22 40.17 31.93C40.1 31.59 40.14 31.24 40.27 30.93C40.43 30.54 40.75 30.22 41.17 30.05C41.59 29.88 42.04 29.9 42.43 30.07C42.73 30.19 42.99 30.41 43.17 30.69C43.4 30.97 43.61 31.29 43.77 31.59C43.69 31.27 43.62 30.91 43.59 30.56C43.51 30.21 43.56 29.87 43.69 29.56C43.74 29.44 43.8 29.33 43.88 29.23C43.95 29.13 44.03 29.05 44.12 28.97C44.18 28.92 44.24 28.87 44.31 28.82C45.04 28.27 46.1 27.83 46.1 27.83L46.33 27.74C46.33 27.74 47.31 27.36 48.2 27.24C48.34 27.21 48.47 27.19 48.61 27.19C48.7 27.19 48.79 27.19 48.88 27.21C49 27.23 49.13 27.27 49.24 27.32C49.4 27.39 49.54 27.48 49.67 27.59C49.83 27.71 49.97 27.87 50.07 28.05C50.24 28.28 50.41 28.53 50.54 28.77C50.47 28.46 50.4 28.12 50.37 27.8C50.3 27.46 50.34 27.12 50.47 26.8C50.62 26.45 50.88 26.16 51.24 25.98C51.95 25.48 52.79 25.12 52.79 25.12L53.02 25.03C53.02 25.03 54.08 24.62 55.02 24.53C55.36 24.45 55.7 24.5 56.01 24.62C56.4 24.78 56.72 25.09 56.88 25.5C57.05 25.92 57.03 26.36 56.86 26.74C56.73 27.04 56.51 27.29 56.23 27.47C55.57 28 54.68 28.47 54.48 28.56L56.15 28.07L56.16 28.04ZM71.97 52.06C71.63 51.22 72.04 50.26 72.88 49.92C73.72 49.59 74.68 49.99 75.02 50.84C75.36 51.68 74.96 52.6399 74.11 52.9799C73.27 53.3199 72.31 52.91 71.97 52.07M38.43 27.3C38.38 27.64 38.54 28.16 38.85 28.66C39.16 29.15 39.53 29.51 39.86 29.63C40.18 29.72 40.53 29.68 40.96 29.5C42.23 28.96 42.13 28.04 41.45 26.01C42.75 28.57 44.32 28.35 46.09 27.62C46.99 27.25 47.74 26.83 48.13 26.14C48.38 25.61 48.32 24.84 47.94 24.11C47.47 23.23 46.63 22.69 45.97 22.81C45.44 22.9 44.79 23.14 43.92 23.51C44 23.39 44.56 23.08 45.54 22.51C45.93 22.28 46.24 21.97 46.37 21.57C46.51 21.17 46.49 20.72 46.29 20.32C46.09 19.91 45.75 19.62 45.35 19.49C44.95 19.35 44.5 19.37 44.1 19.56C43.69 19.76 43.4 20.1 43.27 20.5C43 21.28 43.56 22.74 43.78 23.27C42.2 20.56 40.99 20.98 39.16 21.74C37.72 22.34 36.2 23.57 36.83 24.99C37.5 26.48 38.51 26.14 41.02 25.07C39.27 26.04 38.52 26.49 38.42 27.3M33.01 32.31C32.67 32.15 32.33 31.82 32.13 31.44C31.88 30.98 31.8 30.5 31.94 30.14C32.07 29.83 32.32 29.59 32.72 29.37C33.43 28.98 33.95 29.04 34.48 29.54C34.69 29.71 34.88 29.97 34.99 30.22C35.22 30.69 35.26 31.19 35.12 31.54C34.97 31.84 34.71 32.07 34.26 32.27C33.79 32.48 33.37 32.48 33.01 32.3M6.19003 60.6799C5.85003 59.6599 5.54002 58.61 5.27002 57.56C6.27002 58.97 6.88003 58.73 9.41003 57.6C7.03003 58.98 6.21003 59.56 6.97003 61.02C7.72003 62.46 8.67002 62.11 11.15 61.02C8.78002 62.38 7.95003 62.96 8.69003 64.41C9.43003 65.86 10.38 65.53 12.88 64.41C10.51 65.77 9.68002 66.35 10.43 67.81C11.17 69.26 12.13 68.93 14.61 67.81C12.24 69.18 11.36 69.79 12.16 71.21C12.92 72.55 14 72.4099 16.28 71.3999C16.08 71.5199 15.46 71.88 14.62 72.38C14.23 72.62 13.94 72.94 13.8 73.34C13.68 73.7 13.69 74.07 13.84 74.45C13.21 73.68 12.61 72.91 12.03 72.1C12.03 71.86 11.97 71.62 11.85 71.38C11.67 71.02 11.36 70.74 11.01 70.6C10.73 70.18 10.47 69.76 10.21 69.32C10.37 68.91 10.35 68.43 10.14 68C9.90005 67.53 9.44003 67.22 8.97003 67.13C8.79003 66.78 8.61002 66.44 8.43002 66.09C8.64002 65.64 8.66002 65.0999 8.43002 64.6199C8.21002 64.1899 7.83005 63.9 7.39005 63.78C7.20005 63.33 7.00002 62.89 6.83002 62.42C6.91002 62.05 6.90002 61.62 6.71002 61.25C6.59002 61.01 6.40003 60.82 6.19003 60.67M16.35 71.35C16.35 71.35 17.32 73.34 17 74.31C16.87 74.71 16.59 75.06 16.18 75.27C15.78 75.48 15.33 75.52 14.93 75.39C14.81 75.35 14.58 75.25 14.48 75.2C14.84 75.62 15.25 76.0699 15.62 76.4799C15.77 76.1699 16.08 75.89 16.41 75.72C17.22 75.3 18.21 75.63 18.62 76.44C19.03 77.25 18.66 78.29 17.85 78.7C17.98 78.82 18.11 78.95 18.25 79.07C19.03 78.77 19.96 79.07 20.34 79.81C20.52 80.16 20.54 80.5799 20.46 80.9299C21.02 81.3799 21.6 81.8099 22.18 82.2299C22.2 81.6599 22.55 81.08 23.1 80.81C23.91 80.4 24.9 80.72 25.31 81.53C25.72 82.34 25.36 83.36 24.55 83.77L24.5 83.7899C24.67 83.8999 24.86 84 25.04 84.11C25.8 83.86 26.66 84.1699 27.03 84.8999C27.09 85.0199 27.13 85.18 27.16 85.31C27.85 85.68 28.54 86.01 29.25 86.35C29.39 86.18 29.57 86.0099 29.78 85.8999C30.59 85.4899 31.58 85.8099 31.99 86.6199C32.14 86.9099 32.19 87.25 32.16 87.56C32.8 87.8 33.44 88.02 34.1 88.24C34.25 87.99 34.48 87.7599 34.76 87.6199C35.57 87.1999 36.56 87.53 36.97 88.34C37.09 88.58 37.15 88.84 37.15 89.1C37.31 89.14 37.46 89.17 37.62 89.21C36.83 87.37 36.68 86.5499 37.92 85.8999C39.35 85.1499 39.89 86.07 41.23 88.39C39.78 85.12 39.84 84.93 42.93 83.14C40.47 84.24 39.46 84.66 38.78 83.19C38.13 81.8 38.86 81.2099 41.02 79.9299C39.6 76.7499 39.69 76.54 42.76 74.77C39.53 76.21 39.53 76.24 37.78 73.2C34.77 74.53 34.51 74.4499 32.79 71.4799C29.76 72.8199 29.28 72.58 27.55 69.56C28.64 72.01 29.05 72.97 27.62 73.7C26.18 74.43 25.65 73.54 24.31 71.21C25.4 73.65 25.84 74.63 24.39 75.34C22.97 76.03 22.62 75.34 21.31 73.07C18.3 74.4 18.03 74.22 16.34 71.35" fill="white"/>
</g>
<defs>
<radialGradient id="paint0_radial_1_175" cx="0" cy="0" r="1" gradientUnits="userSpaceOnUse" gradientTransform="translate(50.9413 44.798) scale(69.0731 69.0731)">
<stop stop-color="#B0B8CE"/>
<stop offset="0.13" stop-color="#A4ADC4"/>
<stop offset="0.37" stop-color="#8790A9"/>
<stop offset="0.68" stop-color="#57637F"/>
<stop offset="0.95" stop-color="#283656"/>
<stop offset="1" stop-color="#00305C"/>
</radialGradient>
<radialGradient id="paint1_radial_1_175" cx="0" cy="0" r="1" gradientUnits="userSpaceOnUse" gradientTransform="translate(78.4349 75.4105) scale(74.6711)">
<stop stop-color="white"/>
<stop offset="0.06" stop-color="#DFE2E6"/>
<stop offset="0.23" stop-color="#9199A9"/>
<stop offset="0.37" stop-color="#58637C"/>
<stop offset="0.47" stop-color="#354260"/>
<stop offset="0.52" stop-color="#283656"/>
<stop offset="1" stop-color="#00305C"/>
</radialGradient>
</defs>
</svg>
