<svg width="1098" height="1099" viewBox="0 0 1098 1099" fill="none" xmlns="http://www.w3.org/2000/svg">
<path d="M624.8 1067.2C686.877 1067.2 737.2 945.6 737.2 795.6C737.2 645.599 686.877 524 624.8 524C562.723 524 512.4 645.599 512.4 795.6C512.4 945.6 562.723 1067.2 624.8 1067.2Z" stroke="#D6EAB1" stroke-width="3" stroke-miterlimit="10"/>
<path d="M705.081 822.948C729.063 674.878 698.829 546.797 637.55 536.872C576.272 526.947 507.155 638.936 483.173 787.007C459.19 935.078 489.425 1063.16 550.703 1073.08C611.981 1083.01 681.099 971.019 705.081 822.948Z" stroke="#D6EAB1" stroke-width="3" stroke-miterlimit="10"/>
<path d="M658.005 841.076C705.353 698.744 695.985 567.477 637.082 547.883C578.179 528.288 492.046 627.786 444.698 770.118C397.351 912.45 406.718 1043.72 465.622 1063.31C524.525 1082.91 610.658 983.408 658.005 841.076Z" stroke="#D6EAB1" stroke-width="3" stroke-miterlimit="10"/>
<path d="M609.102 851.449C678.597 718.518 690.337 587.442 635.324 558.682C580.311 529.922 479.378 614.369 409.884 747.3C340.389 880.231 328.649 1011.31 383.662 1040.07C438.674 1068.83 539.607 984.38 609.102 851.449Z" stroke="#D6EAB1" stroke-width="3" stroke-miterlimit="10"/>
<path d="M559.85 853.879C649.704 733.769 682.25 606.256 632.543 569.07C582.836 531.885 469.7 599.108 379.846 719.219C289.992 839.329 257.447 966.842 307.153 1004.03C356.86 1041.21 469.997 973.989 559.85 853.879Z" stroke="#D6EAB1" stroke-width="3" stroke-miterlimit="10"/>
<path d="M509.46 859.111C617.544 755.1 670.268 634.523 627.224 589.793C584.18 545.064 461.667 593.121 353.584 697.131C245.501 801.142 192.776 921.719 235.821 966.449C278.865 1011.18 401.377 963.122 509.46 859.111Z" stroke="#D6EAB1" stroke-width="3" stroke-miterlimit="10"/>
<path d="M461.32 845.559C584.642 760.167 655.967 649.57 620.628 598.534C585.289 547.498 456.668 575.349 333.346 660.741C210.024 746.133 138.7 856.73 174.039 907.766C209.378 958.802 337.998 930.951 461.32 845.559Z" stroke="#D6EAB1" stroke-width="3" stroke-miterlimit="10"/>
<path d="M416.392 824.74C551.78 760.163 639.869 662.392 613.145 606.363C586.42 550.333 455.001 557.262 319.613 621.839C184.225 686.416 96.1356 784.187 122.86 840.216C149.585 896.246 281.004 889.317 416.392 824.74Z" stroke="#D6EAB1" stroke-width="3" stroke-miterlimit="10"/>
<path d="M369.3 805.834C513.345 763.985 616.076 681.735 598.758 622.123C581.439 562.511 450.628 548.111 306.583 589.959C162.538 631.808 59.8072 714.059 77.126 773.671C94.4449 833.283 225.256 847.683 369.3 805.834Z" stroke="#D6EAB1" stroke-width="3" stroke-miterlimit="10"/>
<path d="M332.744 771.382C481.626 753.102 596.186 688.334 588.621 626.72C581.056 565.106 454.23 529.977 305.347 548.258C156.465 566.538 41.9046 631.305 49.4698 692.92C57.0351 754.534 183.861 789.663 332.744 771.382Z" stroke="#D6EAB1" stroke-width="3" stroke-miterlimit="10"/>
<path d="M573.872 629.326C576.255 567.295 456.677 512.341 306.787 506.583C156.897 500.825 33.4554 546.443 31.0724 608.474C28.6894 670.505 148.268 725.459 298.157 731.217C448.047 736.975 571.489 691.357 573.872 629.326Z" stroke="#D6EAB1" stroke-width="3" stroke-miterlimit="10"/>
<path d="M563.736 639.101C576.112 578.271 466.986 504.715 319.997 474.809C173.008 444.904 43.8169 469.974 31.4407 530.805C19.0646 591.635 128.19 665.191 275.179 695.096C422.168 725.002 551.359 699.932 563.736 639.101Z" stroke="#D6EAB1" stroke-width="3" stroke-miterlimit="10"/>
<path d="M548.227 637.058C570.17 578.989 474.209 488.932 333.891 435.91C193.574 382.889 62.0371 386.981 40.0946 445.051C18.152 503.12 114.113 593.177 254.43 646.198C394.747 699.219 526.285 695.127 548.227 637.058Z" stroke="#D6EAB1" stroke-width="3" stroke-miterlimit="10"/>
<path d="M533.629 632.477C564.573 578.663 484.245 474.422 354.21 399.649C224.175 324.875 93.6749 307.884 62.7304 361.699C31.7859 415.513 112.115 519.754 242.15 594.527C372.185 669.3 502.684 686.291 533.629 632.477Z" stroke="#D6EAB1" stroke-width="3" stroke-miterlimit="10"/>
<path d="M520.037 636.362C559.272 588.256 496.845 472.404 380.603 377.599C264.36 282.794 138.322 244.938 99.0874 293.044C59.853 341.15 122.28 457.002 238.522 551.807C354.764 646.611 480.803 684.468 520.037 636.362Z" stroke="#D6EAB1" stroke-width="3" stroke-miterlimit="10"/>
<path d="M507.092 627.393C553.513 586.178 510.412 461.836 410.823 349.666C311.234 237.496 192.869 179.975 146.448 221.189C100.027 262.404 143.129 386.746 242.718 498.916C342.307 611.087 460.672 668.607 507.092 627.393Z" stroke="#D6EAB1" stroke-width="3" stroke-miterlimit="10"/>
<path d="M496.16 616.567C548.573 583.305 525.906 453.671 445.532 327.021C365.158 200.371 257.512 124.666 205.099 157.928C152.686 191.191 175.353 320.825 255.727 447.475C336.101 574.124 443.747 649.829 496.16 616.567Z" stroke="#D6EAB1" stroke-width="3" stroke-miterlimit="10"/>
<path d="M487.596 604.385C544.653 579.93 543.004 448.34 483.913 310.469C424.821 172.598 330.664 80.656 273.607 105.111C216.55 129.565 218.2 261.156 277.291 399.027C336.383 536.898 430.539 628.84 487.596 604.385Z" stroke="#D6EAB1" stroke-width="3" stroke-miterlimit="10"/>
<path d="M474.942 599.44C535.201 584.527 554.839 454.399 518.805 308.791C482.77 163.183 404.709 57.2337 344.45 72.1463C284.191 87.0589 264.553 217.187 300.588 362.795C336.622 508.403 414.683 614.352 474.942 599.44Z" stroke="#D6EAB1" stroke-width="3" stroke-miterlimit="10"/>
<path d="M470.057 584.742C531.925 579.656 572.115 454.342 559.824 304.846C547.533 155.35 487.416 38.2822 425.548 43.3687C363.68 48.4552 323.489 173.769 335.78 323.265C348.071 472.762 408.189 589.829 470.057 584.742Z" stroke="#D6EAB1" stroke-width="3" stroke-miterlimit="10"/>
<path d="M595.977 306.933C607.746 157.395 567.118 32.2215 505.232 27.351C443.347 22.4805 383.638 139.757 371.869 289.295C360.1 438.833 400.728 564.006 462.613 568.876C524.499 573.747 584.208 456.471 595.977 306.933Z" stroke="#D6EAB1" stroke-width="3" stroke-miterlimit="10"/>
<path d="M637.372 324.161C673.152 178.49 653.287 48.3973 593.002 33.5899C532.717 18.7825 454.841 124.868 419.061 270.539C383.281 416.21 403.146 546.303 463.431 561.11C523.715 575.917 601.591 469.832 637.372 324.161Z" stroke="#D6EAB1" stroke-width="3" stroke-miterlimit="10"/>
<path d="M671.264 338.128C729.874 200.052 731.064 68.4563 673.922 44.2009C616.78 19.9456 522.944 112.215 464.334 250.292C405.724 388.368 404.535 519.964 461.677 544.219C518.819 568.474 612.654 476.204 671.264 338.128Z" stroke="#D6EAB1" stroke-width="3" stroke-miterlimit="10"/>
<path d="M703.055 357.199C782.987 230.269 805.202 100.557 752.673 67.4775C700.144 34.3983 592.763 110.479 512.831 237.408C432.9 364.338 410.685 494.05 463.214 527.13C515.743 560.209 623.124 484.128 703.055 357.199Z" stroke="#D6EAB1" stroke-width="3" stroke-miterlimit="10"/>
<path d="M731.547 391.752C830.94 279.408 873.825 154.99 827.332 113.857C780.839 72.7236 662.575 130.451 563.182 242.795C463.788 355.138 420.904 479.556 467.397 520.69C513.89 561.823 632.154 504.096 731.547 391.752Z" stroke="#D6EAB1" stroke-width="3" stroke-miterlimit="10"/>
<path d="M755.008 419.942C871.084 324.934 933.309 208.973 893.991 160.936C854.672 112.898 728.7 150.975 612.624 245.983C496.547 340.99 434.322 456.951 473.641 504.988C512.959 553.026 638.931 514.949 755.008 419.942Z" stroke="#D6EAB1" stroke-width="3" stroke-miterlimit="10"/>
<path d="M774.109 451.439C903.882 376.212 983.847 271.691 952.715 217.985C921.583 164.279 791.143 181.726 661.37 256.953C531.597 332.18 451.632 436.7 482.764 490.406C513.896 544.112 644.336 526.665 774.109 451.439Z" stroke="#D6EAB1" stroke-width="3" stroke-miterlimit="10"/>
<path d="M783.245 495.379C923.469 442.113 1019.27 351.889 997.23 293.858C975.186 235.827 843.641 231.964 703.417 285.231C563.192 338.497 467.388 428.721 489.432 486.752C511.476 544.783 643.02 548.646 783.245 495.379Z" stroke="#D6EAB1" stroke-width="3" stroke-miterlimit="10"/>
<path d="M790.757 531.019C937.694 500.858 1046.69 427.111 1034.21 366.303C1021.73 305.494 892.492 280.649 745.555 310.811C598.618 340.973 489.621 414.719 502.103 475.528C514.586 536.337 643.82 561.181 790.757 531.019Z" stroke="#D6EAB1" stroke-width="3" stroke-miterlimit="10"/>
<path d="M792.942 567.756C942.811 561.474 1062.2 506.103 1059.6 444.081C1057 382.058 933.397 336.872 783.528 343.153C633.659 349.434 514.274 404.805 516.873 466.828C519.473 528.85 643.073 574.037 792.942 567.756Z" stroke="#D6EAB1" stroke-width="3" stroke-miterlimit="10"/>
<path d="M1065.7 523.996C1073.05 462.356 958.267 397.988 809.322 380.228C660.376 362.467 533.674 398.038 526.324 459.679C518.973 521.319 633.759 585.686 782.704 603.447C931.65 621.207 1058.35 585.636 1065.7 523.996Z" stroke="#D6EAB1" stroke-width="3" stroke-miterlimit="10"/>
<path d="M1066.02 614.303C1083.24 554.661 980.363 472.59 836.246 430.993C692.128 389.396 561.342 404.024 544.128 463.666C526.913 523.308 629.788 605.379 773.905 646.976C918.023 688.573 1048.81 673.945 1066.02 614.303Z" stroke="#D6EAB1" stroke-width="3" stroke-miterlimit="10"/>
<path d="M1047.95 693.065C1074.48 636.942 986.048 539.479 850.435 475.375C714.823 411.271 583.381 404.801 556.852 460.924C530.323 517.047 618.752 614.509 754.365 678.613C889.978 742.717 1021.42 749.187 1047.95 693.065Z" stroke="#D6EAB1" stroke-width="3" stroke-miterlimit="10"/>
<path d="M1018.08 767.777C1053.24 716.617 981.534 606.27 857.915 521.309C734.295 436.347 605.579 408.945 570.418 460.105C535.257 511.264 606.967 621.611 730.587 706.572C854.206 791.534 982.923 818.936 1018.08 767.777Z" stroke="#D6EAB1" stroke-width="3" stroke-miterlimit="10"/>
<path d="M976.218 847.985C1019.18 803.181 966.249 682.695 857.985 578.873C749.72 475.051 627.124 427.208 584.158 472.013C541.192 516.817 594.127 637.303 702.391 741.125C810.655 844.947 933.252 892.79 976.218 847.985Z" stroke="#D6EAB1" stroke-width="3" stroke-miterlimit="10"/>
<path d="M923.539 909.28C973.116 871.921 940.126 744.522 849.853 624.727C759.58 504.931 646.21 438.103 596.634 475.461C547.057 512.82 580.047 640.219 670.32 760.015C760.592 879.81 873.963 946.639 923.539 909.28Z" stroke="#D6EAB1" stroke-width="3" stroke-miterlimit="10"/>
<path d="M862.273 961.464C917.185 932.512 904.987 801.477 835.029 668.79C765.071 536.102 663.844 452.008 608.932 480.96C554.02 509.912 566.217 640.946 636.175 773.634C706.133 906.321 807.361 990.416 862.273 961.464Z" stroke="#D6EAB1" stroke-width="3" stroke-miterlimit="10"/>
<path d="M787.63 1013.03C846.499 993.331 855.638 862.048 808.042 719.799C760.446 577.55 674.139 478.202 615.27 497.899C556.402 517.597 547.263 648.88 594.859 791.129C642.454 933.378 728.761 1032.73 787.63 1013.03Z" stroke="#D6EAB1" stroke-width="3" stroke-miterlimit="10"/>
<path d="M712.493 1042.65C773.753 1032.62 803.764 904.484 779.524 756.455C755.283 608.427 685.97 496.558 624.709 506.59C563.449 516.622 533.438 644.755 557.678 792.784C581.919 940.813 651.232 1052.68 712.493 1042.65Z" stroke="#D6EAB1" stroke-width="3" stroke-miterlimit="10"/>
<path d="M549 1052.3C827.075 1052.3 1052.5 826.875 1052.5 548.8C1052.5 270.724 827.075 45.2998 549 45.2998C270.925 45.2998 45.5 270.724 45.5 548.8C45.5 826.875 270.925 1052.3 549 1052.3Z" fill="url(#paint0_radial_13_2)"/>
<path d="M243.78 641.6H217.38V630.38C213.42 635.366 209.313 638.813 205.06 640.72C200.807 642.48 194.867 643.36 187.24 643.36C165.973 643.36 149.767 635.293 138.62 619.16C128.94 605.226 124.1 587.113 124.1 564.82C124.1 542.38 129.013 524.193 138.84 510.26C150.133 494.273 166.56 486.28 188.12 486.28C200 486.28 210.193 488.773 218.7 493.76C226.033 498.013 233.587 505.273 241.36 515.54L219.36 535.56C214.667 529.4 210.267 524.926 206.16 522.14C201.027 518.913 195.013 517.3 188.12 517.3C166.413 517.3 155.56 533.14 155.56 564.82C155.56 596.5 166.487 612.34 188.34 612.34C196.553 612.34 202.787 609.333 207.04 603.32C210.853 597.893 212.76 590.926 212.76 582.42H185.48V555.58H243.78V641.6ZM400.374 641.6H366.274L352.414 603.1H302.474L288.614 641.6H254.734L313.694 488.04H340.974L400.374 641.6ZM342.294 575.6L327.334 534.46L312.594 575.6H342.294ZM528.658 641.6H503.358L447.258 554.04V641.6H415.798V488.04H441.318L497.198 575.6V488.04H528.658V641.6ZM677.228 641.6H645.768V577.58H590.988V641.6H559.528V488.04H590.988V547.88H645.768V488.04H677.228V641.6ZM829.865 564.82C829.865 587.406 824.952 605.593 815.125 619.38C803.832 635.366 787.332 643.36 765.625 643.36C743.919 643.36 727.419 635.366 716.125 619.38C706.299 605.593 701.385 587.406 701.385 564.82C701.385 542.233 706.299 524.046 716.125 510.26C727.419 494.273 743.919 486.28 765.625 486.28C787.332 486.28 803.832 494.273 815.125 510.26C824.952 524.046 829.865 542.233 829.865 564.82ZM798.185 564.82C798.185 533.14 787.332 517.3 765.625 517.3C743.919 517.3 733.065 533.14 733.065 564.82C733.065 596.5 743.919 612.34 765.625 612.34C787.332 612.34 798.185 596.5 798.185 564.82ZM969.579 578.24C969.579 621.653 949.999 643.36 910.839 643.36C871.532 643.36 851.879 621.653 851.879 578.24V488.04H883.339V576.48C883.339 588.066 884.952 596.573 888.179 602C892.432 609.186 899.912 612.78 910.619 612.78C921.766 612.78 929.392 609.26 933.499 602.22C936.579 597.086 938.119 588.506 938.119 576.48V488.04H969.579V578.24Z" fill="#FFFAFC"/>
<defs>
<radialGradient id="paint0_radial_13_2" cx="0" cy="0" r="1" gradientUnits="userSpaceOnUse" gradientTransform="translate(549 548.8) scale(503.5)">
<stop stop-color="#00305C"/>
<stop offset="0.4" stop-color="#00305C"/>
<stop offset="0.6" stop-color="#00305C" stop-opacity="0.81"/>
<stop offset="0.7" stop-color="#00305C" stop-opacity="0.64"/>
<stop offset="0.8" stop-color="#00305C" stop-opacity="0.36"/>
<stop offset="0.9" stop-color="#00305C" stop-opacity="0.09"/>
<stop offset="1" stop-color="#00305C" stop-opacity="0"/>
</radialGradient>
</defs>
</svg>
